<svg xmlns="http://www.w3.org/2000/svg" viewBox="0 0 289.89 228.53"><g id="Capa_2" data-name="Capa 2"><g id="Capa_29" data-name="Capa 29"><path d="M0,36.41A39.51,39.51,0,0,1,2.66,21.77a30.92,30.92,0,0,1,4.42-7.86C14.08,5,23.19.09,34.47.07,113,0,176.77,0,255.28.05a34.7,34.7,0,0,1,34.54,34.5q.15,79.71,0,159.43a34.66,34.66,0,0,1-34.53,34.49c-78.52.08-142.29.07-220.81,0a34.06,34.06,0,0,1-21.93-8.05,34.77,34.77,0,0,1-12.07-26C.32,186.5.16,176.72,0,176.21ZM152,212.76c40,0,65.26,0,105.26,0,11.48,0,18.19-6.67,18.19-18.09q0-80.31,0-160.64c0-11.65-6.64-18.26-18.32-18.27H32.77c-11.71,0-18.35,6.6-18.35,18.24V194.34c0,11.86,6.58,18.42,18.48,18.42Q92.44,212.78,152,212.76Z"/><path d="M120.05,134.28c1.32,0,2.64.14,4,.29,19.33,2.14,26.7,14.48,27.14,28.34.07,2.31.11,4.62,0,6.92a8.36,8.36,0,0,1-16.7,0c-.1-1.79,0-3.59,0-5.38-.1-8-7.63-15.09-16.87-15.21q-22.27-.28-44.57,0c-9.36.12-16.9,7.25-17,15.39,0,1.8.08,3.6,0,5.39a7.92,7.92,0,0,1-8,7.72c-4.56.22-8.12-2.78-8.58-6.81-1.1-9.73.51-19,8.41-26.62,7.11-6.9,15-10.31,25.63-10.4,7.23-.07,14.47,0,21.7,0Z"/><path d="M126.84,82.44A31.66,31.66,0,1,1,95,50.77,31.69,31.69,0,0,1,126.84,82.44Zm-13,.11a18.66,18.66,0,1,0-18.67,18.74A18.71,18.71,0,0,0,113.84,82.55Z"/><path d="M211.67,76.18c-11.19,0-22.38,0-33.57,0-6.31,0-10.55-3.87-10.55-9.53s4.2-9.5,10.56-9.5q33.87,0,67.73,0c6.09,0,10.39,3.89,10.47,9.37s-4.26,9.64-10.48,9.66C234.45,76.2,223.06,76.18,211.67,76.18Z"/><path d="M211.85,126.89c-11.69,0-23.37,0-35,0a9.31,9.31,0,0,1-8.9-6.63c-1.18-3.87.15-8.4,3.64-10.46a13.3,13.3,0,0,1,6.4-1.82c22.68-.13,45.35-.11,68-.06,6.09,0,10.34,4,10.35,9.52s-4.22,9.46-10.31,9.48c-11.38,0-22.77,0-34.15,0Z"/><path d="M211.85,159.89c11.69,0,23.37,0,35.05,0,4.5,0,8,1.74,9.11,6a9.21,9.21,0,0,1-4.4,10.42,11.2,11.2,0,0,1-5.06,1.39q-34.61.14-69.21,0a9.51,9.51,0,0,1-9.69-7.94c-.68-4.78,1.8-8,6.26-9.39a15.87,15.87,0,0,1,4.68-.52c11.08,0,22.17,0,33.26,0Z"/></g></g></svg>