<svg xmlns="http://www.w3.org/2000/svg" viewBox="0 0 209.85 233.32"><g id="Capa_2" data-name="Capa 2"><g id="Capa_28" data-name="Capa 28"><path d="M209.84,116.77q0,43.13,0,86.24c0,14.85-8.82,26.25-22.69,29.48a32.79,32.79,0,0,1-7.33.79q-74.86.06-149.73,0c-15.18,0-27-9.74-29.66-24.29a37.27,37.27,0,0,1-.4-6.52Q0,116.68,0,30.87C0,12.35,12.37,0,30.89,0q74.3,0,148.59,0c15.44,0,27.28,9.6,29.93,24.29a40.75,40.75,0,0,1,.42,7.08Q209.86,74.08,209.84,116.77Zm-11.58-.11q0-42.84,0-85.68c0-12-7.09-19.22-19-19.22q-74.31,0-148.61,0c-11.95,0-19,7.18-19,19.21V202.34c0,12,7.09,19.22,19,19.22q74.31,0,148.62,0a24,24,0,0,0,5.37-.43c8.34-1.91,13.64-8.87,13.65-17.92Q198.3,159.93,198.26,116.66Z"/><path d="M122.59,163.33c-11.47,0-23,0-34.42,0-5.13,0-8.1-4.54-5.81-8.65,1.31-2.35,3.48-3,6-3q9.81,0,19.63,0,24,0,48.08,0c4.36,0,6.82,1.93,7,5.36.25,3.82-2.31,6.29-6.68,6.31C145.16,163.35,133.88,163.33,122.59,163.33Z"/><path d="M122.26,70H87.84c-2.51,0-4.74-.91-5.47-3.25a9.18,9.18,0,0,1,.27-5.6c.86-2.25,3.17-2.76,5.49-2.75,5.79,0,11.57,0,17.35,0q25.47,0,50.93,0c4.22,0,6.67,2.13,6.74,5.64S160.74,70,156.68,70C145.21,70,133.74,70,122.26,70Z"/><path d="M122.22,116.66c-11.38,0-22.76,0-34.14,0-5.1,0-8-4.61-5.68-8.7A5.84,5.84,0,0,1,87.89,105h13.65q27.31,0,54.62,0c4.22,0,6.63,1.85,7,5.14.37,3.84-2.18,6.46-6.47,6.48C145.17,116.68,133.7,116.66,122.22,116.66Z"/><path d="M58.11,163.31c-1.9,0-3.8.09-5.69,0a5.72,5.72,0,0,1-5.73-5.83,5.54,5.54,0,0,1,5.49-5.73c4.07-.18,8.16-.18,12.23,0a5.6,5.6,0,0,1,5.48,5.76,5.78,5.78,0,0,1-5.81,5.79C62.09,163.4,60.1,163.31,58.11,163.31Z"/><path d="M58.3,70c-2,0-4,.07-6,0a5.62,5.62,0,0,1-5.63-5.6,5.51,5.51,0,0,1,5.57-5.89c4-.15,8-.14,11.94,0a5.61,5.61,0,0,1,5.67,5.84A5.74,5.74,0,0,1,64,70c-1.9.07-3.8,0-5.69,0Z"/><path d="M58.13,116.65c-1.9,0-3.8.07-5.69,0a5.7,5.7,0,0,1-5.75-5.8,5.51,5.51,0,0,1,5.47-5.72c4.07-.16,8.16-.16,12.23,0a5.58,5.58,0,0,1,5.5,5.73,5.76,5.76,0,0,1-5.79,5.79C62.11,116.73,60.12,116.65,58.13,116.65Z"/></g></g></svg>