<svg xmlns="http://www.w3.org/2000/svg" viewBox="0 0 167.54 285.55"><g id="Capa_2" data-name="Capa 2"><g id="Capa_15_copia" data-name="Capa 15 copia"><path d="M40.53,9.21Q101,69.81,161.65,130.32c5,5,7.28,10.57,5,17.35a18.7,18.7,0,0,1-4.43,6.92Q99.53,217.52,36.63,280.27c-7,7-16.15,7-23.26.12-3.33-3.23-6.71-6.45-9.71-10-5-5.95-4.8-14.19.3-20.13.79-.91,1.64-1.77,2.5-2.62,34.06-34.07,66-66,100.07-100.07.78-.78,1.58-1.51,5.72-5.31-3.25-3.17-2.49-2.41-3.25-3.17C74.57,104.75,40.13,71.69,5.75,37.28-.67,30.86-1.95,22,3.33,16c4.79-5.45,9.32-11.38,16-14.65A12.78,12.78,0,0,1,30.26,1.1C34.29,3,37.39,6.06,40.53,9.21Z"/></g></g></svg>