<svg xmlns="http://www.w3.org/2000/svg" viewBox="0 0 285.55 167.54"><g id="Capa_2" data-name="Capa 2"><g id="Capa_15" data-name="Capa 15"><path d="M276.34,40.53Q215.74,101,155.23,161.65c-4.95,5-10.57,7.28-17.35,5a18.7,18.7,0,0,1-6.92-4.43Q68,99.53,5.28,36.63c-7-7-7-16.15-.12-23.26,3.23-3.33,6.45-6.71,10-9.71,5.95-5,14.19-4.8,20.13.3.91.79,1.77,1.64,2.62,2.5,34.07,34.06,66,66,100.07,100.07.78.78,1.51,1.58,5.31,5.72,3.17-3.25,2.41-2.49,3.17-3.25C180.8,74.57,213.86,40.13,248.27,5.75c6.42-6.42,15.27-7.7,21.28-2.42,5.45,4.79,11.38,9.32,14.65,16a12.78,12.78,0,0,1,.25,10.89C282.6,34.29,279.49,37.39,276.34,40.53Z"/></g></g></svg>