<svg xmlns="http://www.w3.org/2000/svg" viewBox="0 0 234.94 235.12"><g id="Capa_2" data-name="Capa 2"><g id="Capa_19" data-name="Capa 19"><path d="M234.9,22.26c0,4.45.06,7-2.46,9.51Q208.11,56,183.89,80.26c-.85.85-1.6,1.52-1.31,3.09C184.07,91.46,190.65,98,201,98.08c9.56.08,19.12-.12,28.67-.15,5.11,0,5.3,2.11,5.3,8.93v16.27c0,2.52-.28,4.26-1.86,5.9q-49.86,51.72-99.63,103.5a7.5,7.5,0,0,1-5.81,2.59q-61-.08-122.09,0c-.32,0-.64,0-.94,0A5,5,0,0,1,0,230V208.55a5.49,5.49,0,0,1,1.23-3.47c.61-.76,1-1.16,1.69-2q23.25-23.31,46.54-46.58c.61-.61,1.41-1.45,1.41-2.18a33.5,33.5,0,0,0-.64-8c-2.13-8.18-8.87-13.13-17.65-13.2q-13.53-.1-27.07,0a8.06,8.06,0,0,1-2.82-.39,4.18,4.18,0,0,1-2.69-4V106a3.75,3.75,0,0,1,.85-2.38c.73-.88,1-1.26,2.26-2.58C34.3,66.92,66.29,38.31,99,5.61l2.92-3A9,9,0,0,1,108.32,0H229c3.58,0,5.91,3.16,5.91,6.64Zm-125-14.41c-2.32,0-3.13.68-3.85,1.4Q60.64,54.57,15.3,100c-.51.5-1.07,1.07-1.83,1.94h3q54.29,0,108.58,0a5.65,5.65,0,0,0,4.39-1.84Q174.47,55,219.55,10c.57-.58,1.28-1.26,2.1-2.14Zm65.8,80.7c-.6.55-1.06.94-1.48,1.36q-20.29,20.28-40.54,40.6a8.26,8.26,0,0,1-6.46,2.73c-8.64-.14-17.28-.07-25.93-.05-11.57,0-19,7.51-19.06,19.13,0,10.79,0,21.57,0,32.36a23.26,23.26,0,0,0,.71,5.88c2.27,8.28,8.88,13.13,17.91,13.2,7.88.06,15.76-.07,23.64.06a6.32,6.32,0,0,0,5.15-2.18q45.3-47.31,90.72-94.53c.28-.3.5-.66.92-1.21-.66-.07-1-.13-1.38-.13-6.65,0-13.3-.07-19.95-.06a25.16,25.16,0,0,1-16.29-5.78A27,27,0,0,1,175.71,88.55ZM7.93,125.36c8.2,0,16.22,0,24.24,0,15.6,0,26.58,11,26.6,26.56q0,16.53,0,33.05c0,15.59-11,26.59-26.55,26.64-7.26,0-14.53,0-21.8,0H8v15.54H125.22V211.61h-2.61c-7.26,0-14.53,0-21.8,0-15.3-.08-26.33-11.09-26.39-26.37q-.06-16.74,0-33.5c0-15.3,11.08-26.32,26.36-26.37,7.34,0,14.68,0,22,0h2.37V109.85H7.93Zm219.33-112c-1,1-1.18,1.23-1.54,1.59Q180,60.58,134.39,106.26c-.47.47-1.12,1.08-1.13,1.63-.1,3.78,0,7.55,0,11.33l.9.59a11.05,11.05,0,0,1,1.32-2.15q17.32-17.39,34.7-34.73Q198,55.1,225.75,27.25a4.56,4.56,0,0,0,1.44-2.63C227.36,21.12,227.26,17.37,227.26,13.32Zm0,98c-1,1-1.44,1.42-1.94,2q-45.56,47.42-91.08,94.87a3.1,3.1,0,0,0-1,1.7c-.09,3.63,0,7.26,0,11.32.71-.65,1-.93,1.46-1.34,31.72-30.48,61-63.36,91.54-95.06a3.05,3.05,0,0,0,1-1.68C227.3,119.39,227.25,115.5,227.25,111.34Zm-213,92.31c-.07,0,.12.1.32.1,6.19,0,12.4.23,18.58,0C44,203.24,50.9,195.83,51,185c0-3.67,0-7.34,0-11v-7Z"/><path d="M116.77,169.47a2.7,2.7,0,0,1,.31,3.66c-.15.19-1,1.34-1.17,1.51a30.41,30.41,0,0,1-3.76,3.85,3.63,3.63,0,0,1-5.17-.21,3.83,3.83,0,0,1-.21-5.2,42.14,42.14,0,0,1,4.29-4.4,3.27,3.27,0,0,1,4.15-.59A9.06,9.06,0,0,1,116.77,169.47Z"/><path d="M159.57,118.47a3.27,3.27,0,0,1,2.93.52,5.36,5.36,0,0,1,1.73,1.72,4.07,4.07,0,0,1-.5,3.63,24.19,24.19,0,0,1-4.68,5,3.48,3.48,0,0,1-4.81-.06c-1.44-1.22-2.05-3-1-4.49a32.6,32.6,0,0,1,3.64-4.26A8.94,8.94,0,0,1,159.57,118.47Z"/><path d="M148.34,141.09a55.29,55.29,0,0,1-4.72,4.46,3.75,3.75,0,0,1-5.34-.13,3.68,3.68,0,0,1-.15-5.17,33.46,33.46,0,0,1,4.58-4.25,4.17,4.17,0,0,1,4-.59,4.43,4.43,0,0,1,2.12,1.85A3.41,3.41,0,0,1,148.34,141.09Z"/><path d="M126.13,162.94a2.87,2.87,0,0,1-2.38-.44,5.81,5.81,0,0,1-1.64-1.6,3,3,0,0,1,.15-3.78c1.64-1.64,3-3.29,4.8-5.13a3.45,3.45,0,0,1,5,.34c1.33,1.45,1.78,3.25.46,4.77a49.71,49.71,0,0,1-4.45,4.7A5,5,0,0,1,126.13,162.94Z"/><path d="M172.28,106a3.89,3.89,0,0,1,4,3.86,4.08,4.08,0,0,1-3.78,3.91,4,4,0,0,1-4-3.93A3.86,3.86,0,0,1,172.28,106Z"/><path d="M101.85,187.72a4,4,0,0,1-3.87,4A3.92,3.92,0,0,1,94.11,188a3.78,3.78,0,0,1,3.83-4A3.88,3.88,0,0,1,101.85,187.72Z"/></g></g></svg>