<?xml version="1.0" encoding="utf-8"?>
<!-- Generator: Adobe Illustrator 24.2.0, SVG Export Plug-In . SVG Version: 6.00 Build 0)  -->
<svg version="1.1" xmlns="http://www.w3.org/2000/svg" xmlns:xlink="http://www.w3.org/1999/xlink" x="0px" y="0px"
	 viewBox="0 0 420.7 375.4" style="enable-background:new 0 0 420.7 375.4;" xml:space="preserve">
<style type="text/css">
	.st0{display:none;}
	.st1{display:inline;}
	.st2{fill:none;stroke:#000000;stroke-width:9.9213;}
</style>
<g id="Capa_1" class="st0">
	<path class="st1" d="M382.1,67c-1.3,0-7.5-0.1-8.8-0.1c-95.2-0.9-190.3,0-285.5,0c-1.6,0-3.2,0-5,0c-1-6.5-1.8-12.8-2.8-19.1
		C77.8,34.6,72.8,25,53.4,25c0,0-4.9,0-16.9,0S19,28.3,19,37.3c0,8.5,6.9,11.6,17.5,11.6c5,0,11.8,0,11.8,0c4.8,0,8.3,4.5,8.9,9.1
		c2.4,17,4.2,30.1,6.6,47.1c4.1,29.4,8.2,58.8,12.3,88.1c4.2,29.9,8.3,59.7,12.6,89.6c2.1,14.3,13,23.4,27.4,23.5
		c3.9,0,7.8,0,11.9,0l7,0c-1.8,4.3-2.8,9-2.8,13.9c0,19.8,16.1,35.9,35.9,35.9s35.9-16.1,35.9-35.9c0-4.8-1-9.4-2.7-13.7h49.4
		c-1.7,4.2-2.7,8.8-2.7,13.7c0,19.8,16.1,35.9,35.9,35.9s35.9-16.1,35.9-35.9c0-4.9-1-9.6-2.8-13.9l11.2,0c8.8,0,14.9,0.1,23.4,0
		c9.9,0,14.2-6.2,14.2-12.2c0-5.8-5.9-11.7-14.5-11.7c-77.5,0-153.1,0-232.4,0c-4.1,0-6.1-1.5-6.6-4.1c-1.3-8-1.9-12.4-2.9-19.9
		c2.1,0,3.6,0,5.1,0c76.3,0,152.7,0,229,0c15.1,0,25.2-8.2,28.4-22.9c9.2-42.6,17.9-85.3,27.4-127.9c0.5-2.3,1.9-8,2.6-11.1
		c0.5-2,0.8-4,0.8-6C403,78.1,395,67.3,382.1,67z M168.1,332.3c-6.6,0-12-5.4-12-12c0-6.6,5.4-12,12-12s12,5.4,12,12
		C180.1,327,174.7,332.3,168.1,332.3z M283.9,332.3c-6.6,0-12-5.4-12-12c0-6.6,5.4-12,12-12s12,5.4,12,12
		C295.9,327,290.5,332.3,283.9,332.3z M377.1,97.4c-9.5,44.3-19,88.7-28.4,133c-0.6,2.9-1.9,4.2-5,4.2c-78.5-0.1-156.9,0-235.4,0
		c-1.2,0-2.3-0.9-2.5-2.1C99.4,186.6,93,141,86.6,95.2c-0.3-2.3,1.4-4.3,3.7-4.3c93.8,0,187.6,0,281.4,0
		C377.8,90.9,378.4,91.5,377.1,97.4z"/>
</g>
<g id="Capa_2" class="st0">
	<g class="st1">
		<path d="M217.3,188.4L81.7,52.8c-1.1-1.1-3.6-1.3-3.6,1.7c0,1.6,0,2.4,0,3.9c0,87.8,0,175.7,0,263.5l0,3.9c0,1.6,2,2.4,3.1,1.3
			c45.6-45.6,91-90.9,136-136C218,190.3,218,189.1,217.3,188.4z"/>
		<path d="M232.9,205.6c-0.5-0.5-1.3-0.5-1.8,0c-44.6,44.6-90.4,90.5-136.1,136.2c-0.8,0.8,0,2.5,2.1,1.7
			c5.6-2.1,24.1-10.7,32.7-15.5c38.5-21.1,56.4-31.8,102.3-58.4c13.4-7.8,27-15.4,40.9-23.3c0.7-0.4,0.9-1.5,0.3-2.1
			C259.4,231.1,245.9,218.2,232.9,205.6z"/>
		<path d="M231.1,174.6c0.4,0.4,1.1,0.4,1.5,0c13.2-12.7,26.8-25.8,40.5-39c0.5-0.5,0.4-1.2-0.1-1.6c-0.1-0.1-0.2-0.2-0.4-0.2
			C217.5,102.4,182,80.6,121.7,48C112.3,43,97.5,36.8,94.2,36c-0.8-0.2-1.4,0.8-0.8,1.4C139.6,83.4,185.8,129.5,231.1,174.6z"/>
		<path d="M344.4,175.1c-16.8-10.5-34.2-19.9-51-29.6c-0.9-0.5-2-0.3-2.7,0.4c-14.5,14.7-28.7,29.1-42.7,43.3
			c-0.9,0.9-0.8,2.2,0,3.1c13.7,13.7,27.8,27.8,42.3,42.3c0.7,0.7,1.8,0.8,2.7,0.4c16.8-9.6,33.8-18.9,50.3-29
			C357,197.6,357.6,183.4,344.4,175.1z"/>
	</g>
</g>
<g id="Capa_3" class="st0">
	<path class="st1" d="M362.1,265c4.5,2.1,8.8,4.4,13.2,6.7c2.7,1.4,2.7,5.2,0,6.6c-2,1-4,2.1-6.1,3.1c-20.7,9.5-41.4,19.1-62.1,28.6
		c-11.2,5.2-21.9,10-33.1,15.2c-2,0.9-5.2,0.8-6.7-1.9c-1.2-2.2-0.5-5.3,2.8-6.9c22.2-10.6,43.4-20,65.1-30
		c7.2-3.3,14.4-6.7,22-10.1c1.2-0.5,1.2-2.2,0-2.8c-0.3-0.1-0.5-0.2-0.8-0.4c-25.5-11.7-51-23.5-76.5-35.3c-1.9-0.9-3.3-0.8-5.1,0
		c-19.9,9.2-39.9,18.4-59.7,27.6c-2.8,1.3-5.2,1.3-8,0c-19.8-9.2-39.7-18.3-59.5-27.5c-1.9-0.9-3.5-1-5.4-0.1
		c-20.4,9.5-40.8,18.8-61.2,28.2c-5.4,2.5-10.7,4.9-16.3,7.5c-1,0.4-1,1.8,0,2.3c0.6,0.3,1.2,0.6,1.4,0.7
		c48.4,22.2,94.8,43.6,143.2,65.7c1.1,0.5,3,0.4,4.1-0.1c7.7-3.4,15.2-7,22.9-10.5c3.9-1.8,7.5,0.5,7.3,4.5
		c-0.1,2.8-2.1,3.8-4.2,4.7c-8.7,4-17.4,8.1-26.1,12.1c-1.6,0.7-3.4,0.7-4.9,0c-4.7-2.3-9.4-4.6-14.1-6.8
		C146.3,324.1,98.2,302,50.1,280c-2.3-1.1-4.2-2.3-4.3-5.1c0-3,2.1-4.2,4.4-5.3c27-12.4,54-24.8,81-37.1c0.5-0.2,2-1,2-1
		s-2-1.1-2.8-1.4c-26.6-12.2-53.3-24.4-79.7-36.7c-3.6-1.7-4.6-2.9-4.6-5.4c0-2,1.3-3.7,3.2-4.6c13.7-6.5,27.2-12.7,41-19
		c3.1-1.4,5.5-0.5,6.8,2.2c1.3,2.7,0.4,5.1-2.7,6.5c-9.3,4.3-18.6,8.6-27.8,12.8c-0.4,0.2-0.8,0.4-1.2,0.6c-1.1,0.5-1.1,2.1,0,2.7
		c0.2,0.1,0.4,0.2,0.6,0.3c47.7,21.9,95.4,43.8,143.1,65.7c1.3,0.6,3.4,0.7,4.7,0.1c47.9-21.9,95.8-44,143.7-66l0,0
		c1.2-0.5,1.2-2.2,0-2.7c-2.9-1.4-5.6-2.6-8.4-3.9c-23-10.6-45.9-21.1-68.9-31.7c-1.8-0.9-3.3-0.8-5.1,0
		c-19.5,9.1-39.1,18-58.6,27.1c-3.5,1.6-6.5,1.7-10.1,0c-19.5-9.1-39.1-18-58.6-27.1c-1.9-0.9-3.5-0.9-5.4,0
		c-6.8,3.2-13.7,6.4-20.5,9.5c-3.4,1.5-5.8,0.8-7.2-1.9c-1.4-2.8-0.3-5.4,3.1-7c4.6-2.2,9.3-4.4,14-6.5c1-0.4,0.7-1,0.1-1.3
		c-0.5-0.2-0.9-0.5-1.4-0.7c-26.5-12.7-53.4-24.5-80-36.8c-2.4-1.1-4.5-2.3-4.5-5.3c0-3,2.2-4.1,4.5-5.2
		c39.4-18,78.8-36.1,118.2-54.2c2.5-1.2,4.6-1.1,7,0c10.9,5.1,21.9,10,32.8,15.1c1.8,0.8,3.2,1,5.1,0.1c7.2-3.4,14.5-6.7,22.2-10.2
		c1.2-0.5,1.2-2.2,0-2.7c-2.4-1.1-4.6-2.1-6.8-3.2c-5.2-2.4-10.3-4.9-15.6-7.1c-1.2-0.5-2.9-0.4-4.1,0.1c-3.4,1.4-6.6,3.2-9.9,4.7
		c-3.1,1.4-5.4,0.7-6.8-2c-1.3-2.7-0.5-5.1,2.5-6.6c4.3-2.2,7.4-3.7,11.9-5.9c3.2-1.5,5.7-1.5,8.8,0c21.5,10,43,19.8,64.5,29.7
		c30.4,14,60.8,28,91.2,41.9c0.7,0.3,1.4,0.7,2.1,1c1.7,0.9,2.7,2.6,2.7,4.5v0c0,1.8-0.9,3.4-2.4,4.3c-0.6,0.4-1.3,0.8-2,1.1
		c-26.1,12-52.1,24-78.2,36c-0.5,0.2-0.9,0.4-1.4,0.7c-1.2,0.5-1.2,2.2,0,2.7c0.5,0.2,1,0.5,1.5,0.7c26.1,12,52.1,24,78.2,36
		c0.8,0.4,1.6,0.9,2.4,1.4c1.2,0.8,1.9,2.2,1.9,3.7v0.5c0,1.5-0.7,2.8-1.9,3.7c-0.8,0.5-1.6,1-2.4,1.4
		c-26.2,12.1-52.5,24.2-78.8,36.3c-0.3,0.2-0.7,0.3-1,0.5c-1.1,0.6-1.1,2.2,0,2.7 M202.1,129.7c8.5,3.7,10.4,3.3,18.1,0.1
		c6-2.5,11.8-5.8,18.2-8.6c1.2-0.5,1.2-2.2,0-2.8c-8.6-4-16.7-7.8-24.9-11.5c-1.1-0.5-2.9-0.5-4,0c-8.3,3.8-16.7,7.6-25.3,11.6
		c-1.2,0.5-1.2,2.2,0,2.7C188.7,123.5,197.1,127.6,202.1,129.7z M196.9,102c1.2-0.5,1.2-2.2,0-2.7c-8.7-4-16.9-7.8-25.2-11.6
		c-0.6-0.3-1.7-0.1-2.4,0.2c-8.5,3.9-17,7.8-26,11.9c-1.2,0.5-1.1,2.1,0,2.8c7.5,4.1,10.5,5.4,16.1,8.2c6.9,3.5,11.6,3.1,19.6-0.5
		L196.9,102z M226.1,99.3c-1.2,0.5-1.2,2.2,0,2.7c8.9,4.2,17.3,8.1,25.8,11.9c0.9,0.4,2.3,0,3.3-0.4c5-2.2,10-4.5,15-6.8
		c2.9-1.3,5.8-2.7,8.9-4.1c1.2-0.5,1.2-2.2,0-2.7c-8.8-4.1-17.2-8-25.7-11.8c-0.8-0.3-2-0.3-2.7,0.1
		C242.6,91.7,234.7,95.4,226.1,99.3z M184.4,80.9c-1,0.5-1.5,1.2-0.6,1.6c8.8,4.1,17.5,8.2,26.3,12.2c0.7,0.3,1.8,0.5,2.4,0.2
		c9.1-4.1,11.5-5,26.2-12c0.8-0.4,1-0.9,0.4-1.2c-8.8-4-17.5-8.1-26.4-12.1c-1-0.5-2.6-0.5-3.6,0C200.5,73.5,198.2,74.3,184.4,80.9z
		 M104.3,81.9c-1.1,0.5-1.2,2.2-0.1,2.7c0.3,0.2,0.6,0.3,0.9,0.5c7,3.2,14,6.5,21.1,9.6c1.4,0.6,3.4,0.6,4.7,0
		c8.5-3.7,16.8-7.6,25.2-11.5v0c1.2-0.5,1.1-2.2,0-2.7c-7.8-3.6-15.2-7.1-22.7-10.5c-0.9-0.4-2.2-0.5-3-0.1
		C122,73.7,113.4,77.7,104.3,81.9z M277.4,139.3c1.2-0.5,1.2-2.2,0-2.7c-6.3-2.9-12.4-5.5-18.2-8.6c-4.3-2.3-7.8-2.4-12.2-0.1
		c-6.8,3.5-13.8,6.6-21.1,9.9c-1.2,0.5-1.2,2.2,0,2.7c6.4,2.9,12.1,5.5,18.4,8.6c3.7,1.8,8.1,1.9,11.8,0.1
		C263.3,145.7,270,142.6,277.4,139.3z M318.3,84.6c1.2-0.5,1.2-2.2,0-2.7c-9-4.1-17.3-8-25.7-11.7c-1-0.4-2.5-0.1-3.6,0.4
		c-5.9,2.6-11.7,5.3-17.6,8c-1.5,0.7-3.1,1.4-4.7,2.2c-1.2,0.5-1.2,2.2,0,2.7c8.8,4.1,17.2,7.9,25.7,11.8c0.6,0.3,1.6,0.5,2.1,0.2
		C302.3,92,310,88.4,318.3,84.6z M197.7,138.3c-9.4-4.3-18.3-8.4-27.2-12.4c-0.5-0.2-1.4-0.2-2,0c-8.7,3.9-16.8,7.6-25.2,11.5
		c-0.7,0.3-0.4,1,0,1.1c8.9,4.2,17.9,8.3,26.9,12.4c1,0.5,2.6,0.5,3.7,0c7.7-3.5,15.4-7,23.7-10.8
		C198.5,139.7,198.5,138.6,197.7,138.3z M225.8,62c-1.2,0.5-1.2,2.2,0,2.8c6,2.6,11.2,5.2,17,8c6.7,3.2,9.8,3.8,18.4,0
		c5-2.2,8.7-3.9,14.4-6.5c2.5-1.2,2.1-3,0.9-3.5c-6.6-3-12.7-6-18.9-8.8c-5.3-2.4-8.2-3-14.3-0.1c-2.6,1.2-5.2,2.5-7.9,3.7
		C232.3,58.9,229.2,60.4,225.8,62z M104.3,117.8c-1.2,0.5-1.2,2.2,0,2.8c6.8,3.1,13,5.9,19.6,9.2c4.7,2.3,8.3,2.3,13.1,0.1
		c5.8-2.7,11.6-5.6,17.9-8.4c1.2-0.5,1.2-2.2,0-2.8c-8.7-4-17-7.8-25.3-11.6c-0.5-0.2-1.3-0.2-1.8,0
		C120.1,110.5,112.4,114.1,104.3,117.8z M318.2,120.5c1.2-0.5,1.2-2.2,0-2.7c-8.1-3.7-15.8-7.2-23.4-10.7c-0.7-0.3-1.7-0.2-2.4,0.1
		c-9.1,4.1-10.5,4.5-25.6,11.7c-1.5,0.7-0.8,1.6-0.2,1.9c8.3,4.1,15.3,7.2,23.5,10.9c1,0.5,2.7,0.5,3.7,0
		C301.8,128.1,309.8,124.4,318.2,120.5z M196.4,64.7c1.2-0.5,1.2-2.2,0-2.7c-8.1-3.7-15.7-7.3-23.4-10.7c-0.7-0.3-1.9,0-2.7,0.3
		c-8.2,3.7-16.4,7.6-24.6,11.3c-1.4,0.6-0.8,1.6,0,1.9c10.8,5.2,15.3,7.1,23.6,10.8c0.9,0.4,2.4,0.4,3.3-0.1
		C180.4,72.1,188.1,68.6,196.4,64.7z M357.3,102.6c1.2-0.5,1.2-2.2,0-2.7c-7.9-3.6-15.4-7.1-23-10.6c-0.7-0.3-1.8-0.5-2.4-0.2
		c-7.7,3.5-15.4,7-23.5,10.7c-1.2,0.5-1.2,2.2,0,2.7c3.9,1.9,8.1,4.2,11.3,5.9c5.2,2.7,10.4,6.4,14.8,4.6c4.4-1.9,7.2-3.5,12.8-5.9
		C350.6,105.8,353.8,104.2,357.3,102.6z M185.8,156.1c-0.8,0.4-0.8,1.5,0,1.9c8.4,3.9,16.2,7.5,24.1,11c0.7,0.3,1.8,0.4,2.4,0.1
		c8.2-3.7,16.4-7.5,24.9-11.4c0.5-0.2,0.5-0.9,0-1.2c-0.8-0.4-1.7-0.9-1.9-1c-8.2-3.8-14.5-6.7-22.7-10.4c-0.7-0.3-1.9-0.4-2.9,0.1
		C201.8,148.8,194.4,152.2,185.8,156.1z M114.1,102.6c1.2-0.5,1.2-2.2,0-2.7c-7.9-3.7-15.4-7.1-22.9-10.5c-0.8-0.4-2-0.5-2.7-0.1
		c-7.6,3.4-15.2,6.9-23.3,10.6c-1.2,0.5-1.2,2.2,0,2.8c8.1,3.7,15.9,7.3,23.6,10.8c0.5,0.2,1.3,0.2,1.8-0.1
		C98.3,109.8,106,106.3,114.1,102.6z"/>
</g>
<g id="Capa_4">
	<g>
		<path class="st2" d="M59.9,188.1h136.9c7.6,0,13.8,6.2,13.8,13.8v86.5c0,7.6-6.2,13.8-13.8,13.8H59.9c-7.6,0-13.8-6.2-13.8-13.8
			v-86.5C46.1,194.3,52.3,188.1,59.9,188.1z"/>
		<path class="st2" d="M220.5,188.1h136.9c11,0,17.2,6.2,17.2,13.8v86.5c0,7.6-6.2,13.8-13.8,13.8H223.9c-7.6,0-13.8-6.2-13.8-13.8
			v-86.5c0-7.6,6.2-13.8,13.8-13.8H220.5z"/>
		<path class="st2" d="M146.7,73.2h122.8c11.4,0,20.6,9.2,20.6,20.6v72.8c0,11.4-9.2,20.6-20.6,20.6H146.7
			c-11.4,0-20.6-9.2-20.6-20.6V93.9C126.1,82.5,135.3,73.2,146.7,73.2z"/>
	</g>
</g>
</svg>
