<?xml version="1.0" encoding="utf-8"?>
<!-- Generator: Adobe Illustrator 24.2.0, SVG Export Plug-In . SVG Version: 6.00 Build 0)  -->
<svg version="1.1" xmlns="http://www.w3.org/2000/svg" xmlns:xlink="http://www.w3.org/1999/xlink" x="0px" y="0px"
	 viewBox="0 0 420.7 375.4" style="enable-background:new 0 0 420.7 375.4;" xml:space="preserve">
<style type="text/css">
	.st0{display:none;}
	.st1{display:inline;}
</style>
<g id="Capa_1" class="st0">
	<path class="st1" d="M382.1,67c-1.3,0-7.5-0.1-8.8-0.1c-95.2-0.9-190.3,0-285.5,0c-1.6,0-3.2,0-5,0c-1-6.5-1.8-12.8-2.8-19.1
		C77.8,34.6,72.8,25,53.4,25c0,0-4.9,0-16.9,0S19,28.3,19,37.3c0,8.5,6.9,11.6,17.5,11.6c5,0,11.8,0,11.8,0c4.8,0,8.3,4.5,8.9,9.1
		c2.4,17,4.2,30.1,6.6,47.1c4.1,29.4,8.2,58.8,12.3,88.1c4.2,29.9,8.3,59.7,12.6,89.6c2.1,14.3,13,23.4,27.4,23.5
		c3.9,0,7.8,0,11.9,0l7,0c-1.8,4.3-2.8,9-2.8,13.9c0,19.8,16.1,35.9,35.9,35.9s35.9-16.1,35.9-35.9c0-4.8-1-9.4-2.7-13.7h49.4
		c-1.7,4.2-2.7,8.8-2.7,13.7c0,19.8,16.1,35.9,35.9,35.9s35.9-16.1,35.9-35.9c0-4.9-1-9.6-2.8-13.9l11.2,0c8.8,0,14.9,0.1,23.4,0
		c9.9,0,14.2-6.2,14.2-12.2c0-5.8-5.9-11.7-14.5-11.7c-77.5,0-153.1,0-232.4,0c-4.1,0-6.1-1.5-6.6-4.1c-1.3-8-1.9-12.4-2.9-19.9
		c2.1,0,3.6,0,5.1,0c76.3,0,152.7,0,229,0c15.1,0,25.2-8.2,28.4-22.9c9.2-42.6,17.9-85.3,27.4-127.9c0.5-2.3,1.9-8,2.6-11.1
		c0.5-2,0.8-4,0.8-6C403,78.1,395,67.3,382.1,67z M168.1,332.3c-6.6,0-12-5.4-12-12c0-6.6,5.4-12,12-12s12,5.4,12,12
		C180.1,327,174.7,332.3,168.1,332.3z M283.9,332.3c-6.6,0-12-5.4-12-12c0-6.6,5.4-12,12-12s12,5.4,12,12
		C295.9,327,290.5,332.3,283.9,332.3z M377.1,97.4c-9.5,44.3-19,88.7-28.4,133c-0.6,2.9-1.9,4.2-5,4.2c-78.5-0.1-156.9,0-235.4,0
		c-1.2,0-2.3-0.9-2.5-2.1C99.4,186.6,93,141,86.6,95.2c-0.3-2.3,1.4-4.3,3.7-4.3c93.8,0,187.6,0,281.4,0
		C377.8,90.9,378.4,91.5,377.1,97.4z"/>
</g>
<g id="Capa_2">
	<g>
		<path d="M217.3,188.4L81.7,52.8c-1.1-1.1-3.6-1.3-3.6,1.7c0,1.6,0,2.4,0,3.9c0,87.8,0,175.7,0,263.5l0,3.9c0,1.6,2,2.4,3.1,1.3
			c45.6-45.6,91-90.9,136-136C218,190.3,218,189.1,217.3,188.4z"/>
		<path d="M232.9,205.6c-0.5-0.5-1.3-0.5-1.8,0c-44.6,44.6-90.4,90.5-136.1,136.2c-0.8,0.8,0,2.5,2.1,1.7
			c5.6-2.1,24.1-10.7,32.7-15.5c38.5-21.1,56.4-31.8,102.3-58.4c13.4-7.8,27-15.4,40.9-23.3c0.7-0.4,0.9-1.5,0.3-2.1
			C259.4,231.1,245.9,218.2,232.9,205.6z"/>
		<path d="M231.1,174.6c0.4,0.4,1.1,0.4,1.5,0c13.2-12.7,26.8-25.8,40.5-39c0.5-0.5,0.4-1.2-0.1-1.6c-0.1-0.1-0.2-0.2-0.4-0.2
			C217.5,102.4,182,80.6,121.7,48C112.3,43,97.5,36.8,94.2,36c-0.8-0.2-1.4,0.8-0.8,1.4C139.6,83.4,185.8,129.5,231.1,174.6z"/>
		<path d="M344.4,175.1c-16.8-10.5-34.2-19.9-51-29.6c-0.9-0.5-2-0.3-2.7,0.4c-14.5,14.7-28.7,29.1-42.7,43.3
			c-0.9,0.9-0.8,2.2,0,3.1c13.7,13.7,27.8,27.8,42.3,42.3c0.7,0.7,1.8,0.8,2.7,0.4c16.8-9.6,33.8-18.9,50.3-29
			C357,197.6,357.6,183.4,344.4,175.1z"/>
	</g>
</g>
</svg>
