<svg xmlns="http://www.w3.org/2000/svg" viewBox="0 0 264.18 264.02"><g id="Capa_2" data-name="Capa 2"><g id="Capa_14" data-name="Capa 14"><path d="M197.37,182.21c.88.72,1.71,1.28,2.41,2q30,30,60.06,60c3.43,3.41,5.31,7.2,3.83,12.09a10.93,10.93,0,0,1-17,5.6,28.24,28.24,0,0,1-3-2.72Q214,229.52,184.41,199.9c-.76-.75-1.41-1.62-2.19-2.54-30.33,23.19-63.74,30.89-100.44,21.1-26.53-7.07-47.56-22.55-62.84-45.3A110.74,110.74,0,0,1,39.11,26.78c40.06-34.38,99.61-36.51,143-1.43C224.39,59.6,240.18,129.12,197.37,182.21Zm-86-160.09c-49,0-89.09,40.06-89.2,89.09s39.9,89,89.07,89.22c48.9.24,89.47-40.28,89.35-89.23S160.32,22.1,111.37,22.12Z"/></g></g></svg>