<svg xmlns="http://www.w3.org/2000/svg" viewBox="0 0 278.96 279.58"><g id="Capa_2" data-name="Capa 2"><g id="Capa_24" data-name="Capa 24"><path d="M4.44,57.28a51.34,51.34,0,0,1,7.28-10.7c7.5-7.67,14-14.42,22.82-22.7,11.9-11.16,25.66-10.65,37.5.44,12.6,11.81,24.68,24.21,36.46,36.85a24.86,24.86,0,0,1,.19,33.44c-6.29,7.17-13.23,13.76-20,20.51-1.28,1.28-1.61,2.11-.74,3.88,6.77,13.7,16.33,25.34,26.67,36.4A184.25,184.25,0,0,0,150,185.23c3.73,2.38,7.73,4.35,11.9,6.68,4.49-4.56,8.85-9.06,13.31-13.46,3-2.93,6-5.88,9.18-8.55,9.49-7.9,23.89-8,32.8.48,13,12.42,25.78,25.16,38.12,38.26a25.48,25.48,0,0,1,.49,34.34,342.36,342.36,0,0,1-26,26.53c-9.54,8.65-21.48,10.9-34.13,9.83-22.24-1.88-42.15-10.48-61.37-20.88a274.7,274.7,0,0,1-70.45-54.32C40.08,178.57,20.4,150.27,8,117.33,4.22,107.19,1,96.86.26,86-.43,76.38,0,66.37,4.44,57.28ZM15.92,81.34c.07.74.13,1.48.2,2.23a99.08,99.08,0,0,0,1.92,12c4.43,18.33,12.25,35.28,22.11,51.28C67.54,191.29,104,226.06,151.08,249.23c14.5,7.13,29.45,12.9,45.77,14.32,9.94.87,18.74-1.4,25.88-8.78,6.13-6.34,12.37-12.58,18.51-18.92,6.64-6.86,6.65-12.58,0-19.4-4.51-4.62-9.12-9.14-13.69-13.71-6.37-6.37-12.69-12.79-19.14-19.07-4.92-4.79-10.37-4.84-15.57-.36-.89.77-1.73,1.61-2.56,2.44-6.25,6.23-12.46,12.51-18.75,18.7-4.39,4.32-9.24,5.39-14.44,2.81a171.94,171.94,0,0,1-15.75-8.68c-17-10.74-31.59-24.21-44.73-39.31-9.16-10.53-17.51-21.62-23.4-34.39-4.63-10-4-13.17,4-20.87C83.49,98,89.75,91.84,95.74,85.49c4.54-4.83,4.4-9.82.19-14.94-.53-.63-1.07-1.25-1.64-1.83Q78.09,52.49,61.87,36.29a16.37,16.37,0,0,0-3.93-2.88c-4.65-2.42-9.27-1.33-14,3.33-6.11,6-12,12.19-18.19,18.1a30.68,30.68,0,0,0-10,21.3A37.65,37.65,0,0,0,15.92,81.34Z"/><path d="M175.29,5a146,146,0,0,1,54.23,30.48,150.33,150.33,0,0,1,39,53.24,147.55,147.55,0,0,1,10.3,34.64A7.83,7.83,0,0,1,263.64,127c-1.67-5.84-2.75-11.85-4.5-17.67-7.89-26.17-22.72-47.75-43.8-65a131.85,131.85,0,0,0-60.12-28c-6.13-1.15-8.85-4-8.69-8.65a7.31,7.31,0,0,1,2.31-5.26A9.24,9.24,0,0,1,157.5.31C163.44,1.83,169.43,3.18,175.29,5Z"/><path d="M144.28,58.65a7.86,7.86,0,0,1,9.66-7.72c32.8,6.67,55.95,25.35,69,56.18,2.39,5.64,3.68,11.77,5.19,17.74a7.9,7.9,0,0,1-5.81,9.9c-4.14,1-8.24-1.55-9.6-6-1.82-6-3-12.26-5.56-17.9-10.95-24.06-29.61-38.75-55.53-44.15C146.78,65.67,144.24,62.88,144.28,58.65Z"/></g></g></svg>