<svg xmlns="http://www.w3.org/2000/svg" viewBox="0 0 207.89 276.48"><g id="Capa_2" data-name="Capa 2"><g id="Capa_27" data-name="Capa 27"><path d="M104.62,0c1.56,0,7.16.15,8.71.36,1.78.23,3.5.41,6.42.77,23.12,3.23,41.41,13.17,57.86,29.6a102.52,102.52,0,0,1,27.6,49.72c4.58,19.22,3.06,38.1-2.87,56.8-5.87,18.52-14.65,35.66-24.79,52.11-18.76,30.47-41.2,58.09-66,83.87a10.53,10.53,0,0,1-15.25,0c-28.15-29.44-53.53-61-73.41-96.7C13,158.64,4.85,140,1.37,119.65A97.84,97.84,0,0,1,4,75.75,102.28,102.28,0,0,1,40.29,22,102.64,102.64,0,0,1,95.39.42h0c1.68-.16,5.37-.41,7-.41Zm-.79,256.44c.79-1,1.11-1.4,1.47-1.8C126,232,145.24,208.3,161.55,182.3c10.81-17.24,20.09-35.21,25.66-54.92a82.89,82.89,0,0,0,1.51-41.22C183.11,61.1,169.2,41.82,147,28.91c-19-11-39.44-14.16-60.83-9.63-21.89,4.63-39.6,16.19-52.56,34.49-14.37,20.31-19.37,42.84-14.3,67.28,3.8,18.29,11.75,35,21,51a397.19,397.19,0,0,0,38.16,54.46C86.62,236.49,95.11,246.2,103.83,256.44Z"/><path d="M104,52a52,52,0,1,1-52,52A52.16,52.16,0,0,1,104,52Zm0,17.34A34.66,34.66,0,1,0,138.63,104,34.75,34.75,0,0,0,104,69.34Z"/></g></g></svg>