<svg xmlns="http://www.w3.org/2000/svg" viewBox="0 0 343.01 258.32"><defs><style>.cls-1{fill:#518ecc;}.cls-2{fill:#5c4984;}.cls-3{fill:#528dcb;}</style></defs><g id="Capa_2" data-name="Capa 2"><g id="Capa_7" data-name="Capa 7"><path class="cls-1" d="M3.13,229.71l16.09-36.34a6.27,6.27,0,0,1,5.94-4h.6a6.19,6.19,0,0,1,5.87,4l16.09,36.34a5,5,0,0,1,.53,2,4.83,4.83,0,0,1-4.82,4.89,5.19,5.19,0,0,1-4.88-3.5l-3.1-7.25H15.13l-3.23,7.58a5,5,0,0,1-4.68,3.17,4.68,4.68,0,0,1-4.68-4.75A5.39,5.39,0,0,1,3.13,229.71Zm28.56-12.79-6.4-15.24-6.4,15.24Z"/><path class="cls-1" d="M43.43,237.86a6.41,6.41,0,0,1-6-4.23l-2.79-6.52H15.94L13,234a6.23,6.23,0,0,1-5.82,3.91,5.88,5.88,0,0,1-5.91-6A6.56,6.56,0,0,1,2,229.2L18.1,192.88a7.45,7.45,0,0,1,7-4.76h.6a7.41,7.41,0,0,1,7,4.76l16.09,36.34a6,6,0,0,1-5.4,8.64ZM14.32,224.65H36.26l3.42,8c.81,1.85,2,2.75,3.75,2.75a3.51,3.51,0,0,0,3.16-5.18L30.5,193.87a4.94,4.94,0,0,0-4.74-3.29h-.61a5.11,5.11,0,0,0-4.81,3.29L4.25,230.21a4.52,4.52,0,0,0-.49,1.68,3.45,3.45,0,0,0,3.45,3.52A3.79,3.79,0,0,0,10.77,233Zm19.22-6.5H17l8.25-19.64Zm-12.8-2.47h9.1l-4.55-10.83Z"/><path class="cls-1" d="M56.22,194.75a5.08,5.08,0,1,1,10.16,0v13.59H85.11V194.75a5.08,5.08,0,1,1,10.16,0v36.81a5.08,5.08,0,0,1-10.16,0V217.71H66.38v13.85a5.08,5.08,0,0,1-10.16,0V194.75Z"/><path class="cls-1" d="M90.18,237.86a6.24,6.24,0,0,1-6.3-6.3V218.94H67.61v12.62a6.31,6.31,0,0,1-12.61,0V194.75a6.31,6.31,0,0,1,12.61,0v12.36H83.88V194.75a6.31,6.31,0,0,1,12.61,0v36.81A6.24,6.24,0,0,1,90.18,237.86Zm-25-21.38H86.34v15.08a3.85,3.85,0,0,0,7.69,0V194.75a3.85,3.85,0,0,0-7.69,0v14.82H65.15V194.75a3.85,3.85,0,0,0-7.69,0v36.81a3.85,3.85,0,0,0,7.69,0Z"/><path class="cls-1" d="M104.3,213.29v-.14c0-13.12,10.36-23.87,24.6-23.87S153.37,199.9,153.37,213v.12c0,13.13-10.36,23.88-24.6,23.88S104.3,226.41,104.3,213.29Zm38.45,0v-.14c0-7.91-5.81-14.51-14-14.51s-13.85,6.47-13.85,14.38v.13c0,7.91,5.8,14.51,14,14.51S142.75,221.2,142.75,213.29Z"/><path class="cls-1" d="M128.77,238.26c-14.66,0-25.7-10.74-25.7-25s11.34-25.23,25.82-25.23c14.66,0,25.7,10.73,25.7,25S143.25,238.26,128.77,238.26Zm.13-47.75c-13.11,0-23.37,10-23.37,22.64,0,13,10,22.65,23.24,22.65s23.37-10,23.37-22.65C152.13,200.19,142.15,190.51,128.9,190.51Zm0,38.38c-8.53,0-15.21-6.91-15.21-15.74,0-9,6.49-15.73,15.08-15.73S144,204.33,144,213.15C144,222.18,137.5,228.89,128.9,228.89Zm-.13-29c-7.2,0-12.62,5.65-12.62,13.15,0,7.7,5.48,13.41,12.75,13.41s12.62-5.65,12.62-13.15C141.52,205.59,136,199.88,128.77,199.88Z"/><path class="cls-1" d="M162.41,195.15a5,5,0,0,1,5.08-5.08h16c5.86,0,10.42,1.64,13.45,4.68a14.51,14.51,0,0,1,4,10.55v.14c0,7.25-3.63,11.74-9.23,14.05l7.06,8.57a5.94,5.94,0,0,1,1.65,3.89,4.73,4.73,0,0,1-4.81,4.69,6.06,6.06,0,0,1-5-2.64l-9.89-12.53h-8.12v10.09a5.08,5.08,0,0,1-10.16,0V195.15Zm20.44,17.35c5,0,7.78-2.64,7.78-6.54v-.12c0-4.36-3-6.6-8-6.6H172.56V212.5Z"/><path class="cls-1" d="M195.58,237.86a7.25,7.25,0,0,1-6-3.11l-9.53-12.06h-6.28v8.86a6.31,6.31,0,0,1-12.62,0V195.14a6.24,6.24,0,0,1,6.31-6.3h16c6.07,0,11,1.74,14.32,5a15.71,15.71,0,0,1,4.31,11.43c0,6.78-2.92,11.77-8.5,14.62l6,7.34a7.18,7.18,0,0,1,1.93,4.67A5.92,5.92,0,0,1,195.58,237.86Zm-24.25-17.62h9.93l10.26,13a4.85,4.85,0,0,0,4,2.17,3.49,3.49,0,0,0,3.58-3.45,4.67,4.67,0,0,0-1.39-3.13L189.67,219l1.53-.64c5.62-2.32,8.48-6.66,8.48-12.91,0-4.12-1.25-7.46-3.6-9.81-2.83-2.83-7.18-4.32-12.59-4.32h-16a3.81,3.81,0,0,0-3.85,3.84v36.41a3.85,3.85,0,1,0,7.69,0V220.24Zm11.52-6.51H171.33V198h11.32c5.77,0,9.21,2.93,9.21,7.83S188.32,213.73,182.85,213.73Zm-9.06-2.46h9.06c4.1,0,6.55-2,6.55-5.3,0-4.56-3.67-5.5-6.75-5.5h-8.86Z"/><path class="cls-1" d="M207.51,229.71l16.1-36.34a6.26,6.26,0,0,1,5.93-4h.6a6.18,6.18,0,0,1,5.87,4l16.09,36.34a5.11,5.11,0,0,1,.53,2,4.82,4.82,0,0,1-4.81,4.89,5.19,5.19,0,0,1-4.89-3.5l-3.1-7.25H219.52l-3.23,7.58a5,5,0,0,1-4.69,3.17,4.68,4.68,0,0,1-4.68-4.75A5.73,5.73,0,0,1,207.51,229.71Zm28.56-12.79-6.4-15.24-6.4,15.24Z"/><path class="cls-1" d="M247.81,237.86a6.39,6.39,0,0,1-6-4.23L239,227.11H220.33L217.42,234a6.22,6.22,0,0,1-5.81,3.91,5.88,5.88,0,0,1-5.91-6,6.52,6.52,0,0,1,.7-2.69l16.09-36.32a7.45,7.45,0,0,1,7-4.76h.6a7.41,7.41,0,0,1,7,4.76l16.09,36.34a6,6,0,0,1-5.41,8.64Zm-29.1-13.21h21.94l3.41,8c.81,1.85,2,2.75,3.75,2.75a3.58,3.58,0,0,0,3.59-3.65,3.72,3.72,0,0,0-.42-1.53l-16.1-36.35a5,5,0,0,0-4.75-3.29h-.59a5.09,5.09,0,0,0-4.81,3.29l-16.1,36.34a4.52,4.52,0,0,0-.49,1.68,3.46,3.46,0,0,0,3.46,3.52,3.79,3.79,0,0,0,3.56-2.42Zm19.22-6.5h-16.5l8.25-19.64Zm-12.8-2.47h9.1l-4.55-10.83Z"/><path class="cls-1" d="M286.59,199.71l-3.56.92a8.5,8.5,0,0,1-1.78.26,4.41,4.41,0,0,1-1.06-8.7l6.53-1.91a17.63,17.63,0,0,1,4.74-.86h.14a5,5,0,0,1,5,5v37.2a5,5,0,1,1-10,0Z"/><path class="cls-1" d="M291.61,237.86a6.25,6.25,0,0,1-6.25-6.24V201.29l-2,.52a9.82,9.82,0,0,1-2.09.31,5.65,5.65,0,0,1-1.4-11.12l6.53-1.92a19.25,19.25,0,0,1,5.09-.9,6.28,6.28,0,0,1,6.37,6.24v37.19A6.25,6.25,0,0,1,291.61,237.86Zm-3.79-39.75v33.51a3.79,3.79,0,0,0,7.57,0V194.43a3.79,3.79,0,0,0-3.78-3.79,16.77,16.77,0,0,0-4.55.82l-6.51,1.9a3.29,3.29,0,0,0-2.48,3.18,3.23,3.23,0,0,0,3.18,3.12,7.26,7.26,0,0,0,1.48-.22Z"/><path class="cls-1" d="M308.16,226.35l13.12-10.75c5.74-4.68,8-7.26,8-11.08s-2.57-6-6.2-6c-2.91,0-4.95,1.25-7.52,4a4.66,4.66,0,0,1-3.43,1.45,4.59,4.59,0,0,1-4.62-4.62,5.08,5.08,0,0,1,1.18-3.16c3.7-4.29,8.05-6.8,15-6.8,9.57,0,15.89,5.61,15.89,14.24v.14c0,7.71-4,11.54-12.13,17.87l-7.52,5.8H336a4.42,4.42,0,0,1,4.42,4.42,4.36,4.36,0,0,1-4.42,4.35H311c-3.17,0-5.48-1.78-5.48-4.82A6.45,6.45,0,0,1,308.16,226.35Z"/><path class="cls-1" d="M336.05,237.46H311c-4,0-6.7-2.43-6.7-6a7.66,7.66,0,0,1,3.1-6l13.11-10.74c5.91-4.82,7.53-7,7.53-10.12s-1.81-4.77-5-4.77c-2.4,0-4.13.95-6.62,3.63a5.85,5.85,0,0,1-4.33,1.84,5.78,5.78,0,0,1-5.84-5.85,6.35,6.35,0,0,1,1.47-4c4.31-5,9.23-7.23,16-7.23,10.24,0,17.12,6.23,17.12,15.48,0,8.32-4,12.34-12.61,19l-4.67,3.6h12.49a5.61,5.61,0,1,1,0,11.22Zm-13-40.18c4.51,0,7.42,2.84,7.42,7.24s-2.6,7.27-8.43,12L308.94,227.3a5.2,5.2,0,0,0-2.19,4.13c0,2.64,2.19,3.58,4.24,3.58h25.06a3.12,3.12,0,0,0,3.19-3.12,3.19,3.19,0,0,0-3.19-3.19H316.36l10.37-8c8.1-6.27,11.65-9.77,11.65-16.9,0-8-5.76-13.15-14.66-13.15-6.05,0-10.26,1.91-14.11,6.37a3.84,3.84,0,0,0-.89,2.36,3.36,3.36,0,0,0,3.39,3.39,3.4,3.4,0,0,0,2.52-1C317.11,199.05,319.47,197.28,323.07,197.28Z"/><path class="cls-1" d="M341.59,258.32H1.42a1.42,1.42,0,1,1,0-2.83H341.59a1.42,1.42,0,1,1,0,2.83Z"/><path class="cls-2" d="M199.93,98.38c-4.42,0-2.67,4.51-7.3,10l-.07.08c-2.7,3.15-6.5,4.69-11.46,4.69-11.2,0-16.5-7.79-16.5-24.49s5.25-24.32,16.32-24.4h.18c6.67,0,11.22,2.75,13.84,8.48a2.56,2.56,0,0,1,.11.24c.18.4.34.8.5,1.23.89,2,2.34,3.08,4.74,2.53s3.92-3.74.74-10.61a21.74,21.74,0,0,0-16.8-11.8c-6.77-.85-12,3.19-14.22,2.84s-1.15-3.46,0-8.78c1.45-6.8,4.61-12.59,6-15.32a8.86,8.86,0,0,0,1.35-4.17c0-2.59-2.07-4.94-5.5-4.94-4,0-8.57,6.79-11.7,16.35-2.2,6.72-3,14.65-3.37,18.24-.42,4.05-.25,6-2.11,6s-1.29-3.1-1-8.38a91.27,91.27,0,0,1,1-10c.39-2.21.83-4.32.07-6a4,4,0,0,0-3.54-2.47c-4.55-.29-7.35,6.9-7.89,15.13-.45,6.67-.76,9.58-.67,16.07.07,4.82.27,7.22-1.71,7.22s-1.75-2.58-1.74-5.51c0-2.56,0-5.48.14-6.91.31-3.53.66-6.47.66-9.23,0-1.49-1.08-3.27-3.77-3.07-5,.38-4.89,12.32-5.35,19.4-1,15.36,3.64,31.85,9.65,39.31,12.18,15.12,24.08,16.78,33.74,16.8,12.14,0,19.16-2.74,24.92-10.48,7.58-10.19,6-18.06.76-18.06"/><path class="cls-3" d="M181.09,105.64c5.37,0,6.84-4.69,6.84-17s-1.47-16.91-6.84-16.91-6.84,4.64-6.84,16.91,1.49,17,6.84,17"/><path class="cls-2" d="M195.94,79.09a6.29,6.29,0,0,0-1.7.3l-2.08.61a2.15,2.15,0,0,0-1.57,2.06,2.12,2.12,0,0,0,2.11,2.08,3,3,0,0,0,.74-.11l.26-.06v9.26a2.3,2.3,0,1,0,4.59,0V81.39a2.32,2.32,0,0,0-2.35-2.3"/><path class="cls-2" d="M210.14,91.2h-3.08l.77-.6c2.58-2,4.14-3.41,4.14-6.28,0-3.13-2.32-5.24-5.76-5.24a6.5,6.5,0,0,0-5.32,2.41,2.32,2.32,0,0,0-.55,1.46,2.18,2.18,0,0,0,3.77,1.48c.74-.79,1.21-1.05,1.89-1.05a1.11,1.11,0,0,1,1.27,1.21c0,.88-.49,1.51-2.28,3L200.82,91a2.73,2.73,0,0,0-1.1,2.16,2.25,2.25,0,0,0,2.44,2.24h8a2.1,2.1,0,0,0,2.11-2.09,2.12,2.12,0,0,0-2.11-2.1"/><path class="cls-3" d="M171.51,151.32a75.66,75.66,0,1,1,75.66-75.65,75.74,75.74,0,0,1-75.66,75.65m0-137.5a61.85,61.85,0,1,0,61.84,61.85,61.9,61.9,0,0,0-61.84-61.85"/></g></g></svg>