<svg xmlns="http://www.w3.org/2000/svg" viewBox="0 0 371.16 108.72"><defs><style>.cls-1{fill:#016fd0;}</style></defs><g id="Capa_2" data-name="Capa 2"><g id="Capa_11" data-name="Capa 11"><path id="path3046" class="cls-1" d="M20.55,0,0,47.79H13.38l3.79-9.57h22L43,47.79H56.66L36.13,0Zm7.6,11.12,6.72,16.72H21.41Z"/><path id="path3048" class="cls-1" d="M58.07,47.78V0l19,.07L88.15,30.88,98.94,0H117.8V47.78h-12V12.57L93.19,47.78H82.72L70,12.57V47.78Z"/><path id="path3050" class="cls-1" d="M126,47.78V0h39V10.69H138v8.17h26.28V28.92H138v8.49H165V47.78Z"/><path id="path3052" class="cls-1" d="M171.87,0V47.79h11.94v-17h5l14.32,17h14.6L202,30.18a14.55,14.55,0,0,0,13.11-14.67c0-10.06-7.9-15.5-16.7-15.5ZM183.81,10.7h13.65c3.28,0,5.66,2.56,5.66,5,0,3.17-3.08,5-5.48,5H183.81v-10Z"/><path id="path3054" class="cls-1" d="M232.22,47.78H220V0h12.2Z"/><path id="path3056" class="cls-1" d="M261.14,47.78h-2.63c-12.74,0-20.48-10-20.48-23.69C238,10.09,245.68,0,261.77,0H275V11.32H261.28c-6.53,0-11.14,5.09-11.14,12.88,0,9.26,5.28,13.14,12.88,13.14h3.15Z"/><path id="path3058" class="cls-1" d="M287.13,0,266.58,47.79H280l3.79-9.57h22l3.78,9.57h13.67L302.71,0Zm7.6,11.12,6.72,16.72H288l6.74-16.72Z"/><path id="path3060" class="cls-1" d="M324.63,47.78V0h15.19l19.39,30V0h12V47.78h-14.7L336.58,17V47.78Z"/><path id="path3062" class="cls-1" d="M50.71,108.72V60.94h39V71.62H62.78V79.8H89.06V89.86H62.78v8.48H89.69v10.38Z"/><path id="path3064" class="cls-1" d="M241.7,108.72V60.94h39V71.62H253.77V79.8h26.16V89.86H253.77v8.48h26.91v10.38Z"/><path id="path3066" class="cls-1" d="M91.2,108.72l19-23.6L90.75,60.94h15l11.57,15,11.61-15h14.46L124.27,84.83l19,23.89H128.23L117,94l-11,14.72Z"/><path id="path3068" class="cls-1" d="M144.7,61v47.77H157V93.64h12.57c10.64,0,18.7-5.65,18.7-16.62,0-9.1-6.32-16.07-17.15-16.07ZM157,71.75H170.2c3.44,0,5.89,2.11,5.89,5.5,0,3.19-2.44,5.5-5.93,5.5H157v-11Z"/><path id="path3072" class="cls-1" d="M193.42,60.94v47.78h12v-17h5l14.33,17h14.59L223.6,91.11a14.54,14.54,0,0,0,13.1-14.67c0-10.06-7.89-15.5-16.7-15.5Zm12,10.68H219c3.27,0,5.66,2.57,5.66,5,0,3.18-3.09,5-5.48,5H205.37Z"/><path id="path3074" class="cls-1" d="M286.21,108.72V98.34h23.91c3.54,0,5.07-1.91,5.07-4s-1.53-4-5.07-4h-10.8c-9.39,0-14.62-5.72-14.62-14.31,0-7.66,4.79-15,18.74-15H326.7l-5,10.75H301.55c-3.84,0-5,2-5,3.94a4.17,4.17,0,0,0,4.4,4.17h11.32c10.47,0,15,5.94,15,13.71,0,8.36-5.06,15.21-15.58,15.21Z"/><path id="path3076" class="cls-1" d="M330.05,108.72V98.34H354c3.54,0,5.07-1.91,5.07-4s-1.53-4-5.07-4h-10.8c-9.39,0-14.62-5.72-14.62-14.31,0-7.66,4.79-15,18.74-15h23.26l-5,10.75H345.39c-3.84,0-5,2-5,3.94a4.18,4.18,0,0,0,4.41,4.17h11.31c10.47,0,15,5.94,15,13.71,0,8.36-5.06,15.21-15.58,15.21Z"/></g></g></svg>