<svg xmlns="http://www.w3.org/2000/svg" viewBox="0 0 186.61 223.49"><defs><style>.cls-1{fill:#f1972c;}</style></defs><g id="Capa_2" data-name="Capa 2"><g id="Capa_31" data-name="Capa 31"><path class="cls-1" d="M84.75,220.34c-1-.84-1.93-1.76-2.86-2.7Q43.28,178.94,4.6,140.31C-.16,135.55-1.57,129.54,2,124.74A62.3,62.3,0,0,1,13.65,113c4-3.15,9.79-2.25,13.77,1.07.78.65,1.51,1.37,2.23,2.09L73.8,160.49c.54.54,1.12,1,2,1.87V14.2C75.81,4.74,80.9-.19,90.5,0c2.19,0,4.39,0,6.58,0,8.79-.09,13.72,4.71,13.73,13.37q0,37.61,0,75.22v73.32c.87-.83,1.43-1.34,2-1.87l44.42-44.33C162,111,168,109.45,172.76,113a62.44,62.44,0,0,1,12,12c3.13,4.06,2.14,9.78-1.22,13.77-.66.77-1.38,1.5-2.1,2.22q-38.27,38.28-76.51,76.56c-1,1-1.94,1.92-3,2.8A13.22,13.22,0,0,1,84.75,220.34Z"/></g></g></svg>