<svg xmlns="http://www.w3.org/2000/svg" viewBox="0 0 277.85 277.85"><defs><style>.cls-1{fill-rule:evenodd;}</style></defs><g id="Capa_2" data-name="Capa 2"><g id="Capa_30" data-name="Capa 30"><path class="cls-1" d="M162.48,95.23a13.75,13.75,0,0,1,19.58-.06,14.08,14.08,0,0,1,.05,19.77l-23.66,24,23.69,24A14,14,0,0,1,182,182.6a13.73,13.73,0,0,1-19.52,0l-23.52-23.85-23.56,23.9a13.75,13.75,0,0,1-19.58.05,14.08,14.08,0,0,1-.05-19.77l23.66-24-23.69-24a14,14,0,0,1,.17-19.65,13.73,13.73,0,0,1,19.52,0l23.52,23.85,23.56-23.89Z"/><path d="M138.93,0A138.93,138.93,0,1,0,277.85,138.93,138.93,138.93,0,0,0,138.93,0Zm0,258.12A119.19,119.19,0,1,1,258.12,138.93,119.19,119.19,0,0,1,138.93,258.12Z"/></g></g></svg>