<svg xmlns="http://www.w3.org/2000/svg" viewBox="0 0 94.42 95.64"><defs><style>.cls-1{fill-rule:evenodd;}</style></defs><g id="Capa_2" data-name="Capa 2"><g id="Capa_17_copia" data-name="Capa 17 copia"><path class="cls-1" d="M70.77,4.12a13.74,13.74,0,0,1,19.57,0,14.08,14.08,0,0,1,.06,19.77l-23.66,24,23.68,24a14,14,0,0,1-.16,19.65,13.74,13.74,0,0,1-19.52,0L47.22,67.63,23.66,91.52a13.75,13.75,0,0,1-19.58.06A14.09,14.09,0,0,1,4,71.8l23.65-24L4,23.8A14,14,0,0,1,4.17,4.14a13.72,13.72,0,0,1,19.51,0L47.2,28,70.77,4.12Z"/></g></g></svg>