<svg xmlns="http://www.w3.org/2000/svg" viewBox="0 0 296.52 296.64"><g id="Capa_2" data-name="Capa 2"><g id="Capa_21" data-name="Capa 21"><path d="M147,2.52c89.34,19.35,98.32,102,98.32,102,4.17,28.17-.57,54.69-14.45,79.55-1,1.78-.92,2.8.58,4.21,3.64,3.42,7.09,7,10.61,10.57,5.76,5.8,7.34,11.12,1.82,17.13.68.71,1.39,1.49,2.14,2.24,14.87,14.88,29.81,29.69,44.6,44.65,10.46,10.58,6.41,28.12-7.54,32.66-7.74,2.52-14.71.73-20.5-5q-22.15-22.06-44.21-44.22c-.75-.75-1.73-1.56-1.85-1.72-3.48,2.86-5.89,3.11-8.78,2.95-2.47-.14-5.68-2.54-7.63-4.23-4.2-3.64-8.05-7.72-11.89-11.76-1.41-1.49-2.42-1.58-4.21-.57-22.29,12.54-46.31,18.17-71.68,15.33C64.75,240.94,30,216.43,10.56,172.64A122.2,122.2,0,0,1,68.08,13.38C99.48-2.2,127.69-1.66,147,2.52ZM10.33,123.71A113.37,113.37,0,0,0,123.55,237.08c62.33.08,113.36-50.86,113.45-113.27a113.34,113.34,0,1,0-226.67-.1ZM223.15,237a5.32,5.32,0,0,0,.53.67q22.71,22.73,45.43,45.42a11.72,11.72,0,0,0,2.82,2.07,10,10,0,0,0,12.38-2.84,9.62,9.62,0,0,0-1.06-12.84c-9.27-9.39-18.64-18.68-28-28L237,223.17Zm1.31-41.85c-4.69,5.32-9,10.67-13.76,15.48s-10.29,9.2-14.81,13.19l12.71,13.3c9.13-9.15,18.38-18.39,27.52-27.73.43-.44.22-2.22-.31-2.79C232.13,202.71,228.27,199,224.46,195.16Z"/><path d="M123.71,20.27a103.45,103.45,0,1,1-.34,206.89C66.29,227.07,20,180.53,20.19,123.53A103.33,103.33,0,0,1,123.71,20.27Zm73.9,113.32c5.79,0,11.15-.11,16.51,0,2.25.06,3-.8,2.91-2.87,0-7.4,0-14.73-1.1-21.91C206.77,51.26,148,15.73,93.17,35.28c-36.66,13.07-57.33,40-62.58,78.54-.87,6.38-.42,15.24-.12,19.57H49.72v-3.07q0-9.82,0-19.66c0-8,3.63-11.56,11.69-11.56H84.25V95.61c0-6.85,0-13.7,0-20.55,0-6.47,4-10.49,10.4-10.5q28.92-.06,57.82,0c6.52,0,10.53,4.12,10.57,10.7,0,7,.14,8.5.15,15.45v8.35H164l21.72,0c8.2,0,11.85,3.63,11.86,11.76C197.61,118.28,197.61,125.71,197.61,133.59Zm2.25,44.49c-1-.14-11.06.51-18,.43-13.45-.15-20.23.13-23.65-1.78a2.36,2.36,0,0,0-1.09.33,14,14,0,0,1-5.46.77c-16.64.06-33.27.1-49.9,0-4,0-8.1-.67-12.15-1a6.22,6.22,0,0,0-1.4.2,37.73,37.73,0,0,1-7.27.81c-10.66.08-6.6,0-17.26,0-3.65,0-14.84.1-16.3.2,19.92,25.75,45.36,39.44,77.49,39.08C156,216.8,180.64,203.1,199.86,178.08ZM94.26,98.89H153V74.61H94.26Zm34.37,34.5h58.93V109.22H128.63ZM94.25,167.81H153V143.6H94.25Zm-34.51-34.4h58.68V109.24H59.74Zm24.33,10.13H32.22a67.94,67.94,0,0,0,7.61,21.73c1.06,2.08,2.5,2.71,3.33,2.72,13,.06,26-.07,39-.09.57,0,.77,0,1.87,0Zm131.1.05H163.23V168c.7,0,.7,0,1,0,13.39,0,26.78,0,40.17,0a3,3,0,0,0,2.57-1.72c1.93-4.15,3.77-8.36,5.35-12.66A53.5,53.5,0,0,0,215.17,143.59Z"/></g></g></svg>