<svg xmlns="http://www.w3.org/2000/svg" viewBox="0 0 296.08 296.1"><g id="Capa_2" data-name="Capa 2"><g id="Capa_23" data-name="Capa 23"><path d="M75.94,296.1a31.54,31.54,0,0,1-11.18-2A19.58,19.58,0,0,1,62,292.87c-8.5-4.85-12.64-12.43-12.69-22.16-.09-14.74,0-29.48-.11-44.22A7.43,7.43,0,0,0,47.36,222C34.5,209,21.51,196.11,8.57,183.17c-11.43-11.44-11.43-26.1,0-37.55Q77,77.13,145.48,8.67C157-2.86,171.5-2.89,183,8.59q42.1,42.1,84.21,84.19c8.66,8.61,11.16,18.32,6.48,29.72a5.24,5.24,0,0,0-.32.87c1.78.41,3.78.75,5.47,1.33,8.8,3,14.32,9,16.64,18v0a16.51,16.51,0,0,1,.61,4.19V272.08a19.64,19.64,0,0,1-.67,5.06v0a24.51,24.51,0,0,1-14.69,17.06c-.32.14-.64.26-1,.38a27.21,27.21,0,0,1-9.17,1.49Zm96.68-9.85h96.82c10.87,0,16.78-5.91,16.79-16.77V150.11c0-11-5.88-16.86-17-16.86H76.16c-11.07,0-16.94,5.87-16.94,16.93q0,59.54,0,119.08c0,11.12,5.84,17,16.87,17ZM122,123.42h3.24c44.69,0,88.84,0,133.52-.13a6.1,6.1,0,0,0,4.08-1.93c5.07-5.87,4.45-14.46-1.41-20.33Q232.55,72.08,203.62,43.2a3.35,3.35,0,0,0-.57-.49C176.08,69.65,148.82,96.6,122,123.42Zm52.76-109c-7.17-6.36-15.4-5.67-22,1Q84,84.08,15.38,152.76a25.4,25.4,0,0,0-2.51,2.78,14.59,14.59,0,0,0,1.4,19.11c.38-.34.4-.38.59-.57q18.41-18.37,36.76-36.81c2.1-3.52,3-5.39,5.6-8.14,2.5-2.6,4.82-3.51,7.35-4.79q54-53.91,107.93-107.88A28.1,28.1,0,0,1,174.74,14.42Zm-94.61,109c8.26,0,16.24-.07,24.22,0a6.69,6.69,0,0,0,5.29-2.2q41.8-42,83.74-83.8c.73-.72,1.39-1.37,1.81-1.7L181.52,22Q131.21,72.29,80.13,123.37Zm-44.85,72.2c4.42-4.44,8.82-8.76,13.07-13.22a5,5,0,0,0,.94-3.12c.08-7.61.05-15.23,0-22.84,0-.69,0-1.66,0-1.83-9.1,9.05-18.47,18.45-27.58,27.52Zm13.89.71-6.36,5.84,6.36,7.32Z"/><path d="M93.79,187.5c-4.81,0-9.63.05-14.44,0-6-.08-10-3.84-10.19-9.85q-.25-9.82,0-19.64c.17-6.1,4.29-9.88,10.47-9.9q14.16-.06,28.31,0c6.38,0,10.47,4.08,10.55,10.47q.09,9.24,0,18.49c-.07,6.4-4.11,10.38-10.54,10.44C103.23,187.54,98.51,187.51,93.79,187.5ZM79.16,177.42h29.32V158.1H79.16Z"/><path d="M162.8,236.93c-3.08,0-6.16.07-9.25,0-3.41-.11-5.54-2.15-5.47-5.06s2.13-4.72,5.44-4.76q9.39-.12,18.78,0c3.34,0,5.28,2,5.29,4.86s-2,4.74-5.25,5H162.8Z"/><path d="M123.45,236.93c-3.08,0-6.17.07-9.25,0-3.52-.1-5.53-2-5.53-5s2-4.83,5.57-4.87q9.26-.1,18.5,0c3.32,0,5.37,1.95,5.44,4.76s-2.08,4.95-5.48,5.06C129.62,237,126.53,236.92,123.45,236.93Z"/><path d="M123.59,246.82c3.17,0,6.34-.06,9.5,0s5,2.06,5.09,4.76a4.87,4.87,0,0,1-4.9,5q-9.93.21-19.86,0a4.71,4.71,0,0,1-4.74-5.09c.09-2.79,2-4.59,5.12-4.67S120.33,246.82,123.59,246.82Z"/><path d="M83.86,246.82c3.18,0,6.36-.06,9.53,0s5.33,2.08,5.32,4.87a4.89,4.89,0,0,1-5,4.91c-6.55.12-13.1.13-19.65,0a4.74,4.74,0,0,1-4.84-5.05c.08-2.74,2-4.63,5.14-4.71S80.68,246.82,83.86,246.82Z"/><path d="M84,227.07c3.18,0,6.36-.09,9.54,0s5.09,2,5.18,4.72-2,5-5.17,5.07c-6.36.12-12.72.11-19.07,0-3.27-.06-5.28-2.09-5.28-4.92s2-4.72,5.27-4.91H84Z"/><path d="M78.91,207.16c0,1.82.15,3.66,0,5.47a4.65,4.65,0,0,1-4.77,4.44,4.53,4.53,0,0,1-4.85-4.33,93,93,0,0,1,0-11,4.57,4.57,0,0,1,4.87-4.33c2.59.18,4.38,1.56,4.69,4.23a47.49,47.49,0,0,1,0,5.47Z"/><path d="M157.89,207.41c0,1.64.09,3.28,0,4.91a4.76,4.76,0,0,1-4.8,4.76,4.7,4.7,0,0,1-5-4.58c-.16-3.46-.15-6.93,0-10.39a4.87,4.87,0,0,1,4.93-4.69,4.93,4.93,0,0,1,4.82,4.79C158,203.94,157.89,205.68,157.89,207.41Z"/><path d="M108.68,207.34c0-1.73-.09-3.47,0-5.19a4.84,4.84,0,0,1,4.57-4.71c2.34-.14,4.79,1.43,5,3.89a71.42,71.42,0,0,1-.06,12.06c-.26,2.6-2.42,3.81-5.08,3.65a4.59,4.59,0,0,1-4.39-4.51C108.58,210.81,108.68,209.07,108.68,207.34Z"/><path d="M128.38,207.34c0-1.73-.09-3.47,0-5.19a4.9,4.9,0,0,1,4.88-4.73,4.83,4.83,0,0,1,4.84,4.47,102.64,102.64,0,0,1,0,10.67,4.67,4.67,0,0,1-5,4.51,4.74,4.74,0,0,1-4.72-4.82C128.3,210.62,128.37,209,128.38,207.34Z"/><path d="M197.31,207.29c0,1.73.09,3.47,0,5.19A4.64,4.64,0,0,1,193,217c-2.48.23-4.91-1.12-5.11-3.6a73.57,73.57,0,0,1,0-12.33c.2-2.45,2.77-4,5.11-3.62,2.58.41,4.18,1.91,4.33,4.61C197.39,203.82,197.31,205.56,197.31,207.29Z"/><path d="M98.74,207.26c0,1.63.11,3.27,0,4.9-.24,3.06-2.21,4.93-5,4.91s-4.71-1.92-4.81-5-.1-6.35,0-9.52,2.07-5.06,4.76-5.12,4.76,1.92,5,4.92C98.85,204,98.74,205.62,98.74,207.26Z"/><path d="M256.6,207.22c0,1.73.14,3.48,0,5.19a4.8,4.8,0,0,1-5.2,4.65c-2.67-.14-4.47-2-4.55-5-.1-3.26-.1-6.54,0-9.8a4.8,4.8,0,0,1,4.71-4.86,4.91,4.91,0,0,1,5,4.59A49.9,49.9,0,0,1,256.6,207.22Z"/><path d="M217,207.33c0,1.82.15,3.66,0,5.47a4.59,4.59,0,0,1-4.61,4.27c-2.47.07-4.71-1.44-4.88-3.94a81.26,81.26,0,0,1,0-11.78,4.43,4.43,0,0,1,4.93-3.89c2.58.28,4.31,1.7,4.55,4.39.16,1.82,0,3.65,0,5.48Z"/><path d="M227.12,207.28c0-1.83-.14-3.67,0-5.48a4.74,4.74,0,0,1,4.58-4.37,4.55,4.55,0,0,1,4.9,4,81.4,81.4,0,0,1,0,11.79c-.18,2.51-2.43,4-4.91,3.89a4.73,4.73,0,0,1-4.6-4.32,6.11,6.11,0,0,1-.08-.86c0-1.54,0-3.08,0-4.61Z"/></g></g></svg>