<svg xmlns="http://www.w3.org/2000/svg" viewBox="0 0 277.85 277.85"><g id="Capa_2" data-name="Capa 2"><g id="Capa_26" data-name="Capa 26"><path d="M126.65,111.76c0-10.58-.08-21.16,0-31.74,0-5,2.66-8.6,7.24-10.5s8.9-1,12.55,2.39c2.77,2.55,3.64,5.86,3.63,9.57,0,17.9,0,35.81-.07,53.72a7.18,7.18,0,0,0,2.29,5.68q18.83,18.59,37.45,37.37c5.16,5.17,5.58,11.76,1.21,16.77a11.66,11.66,0,0,1-15.69,1.73,27,27,0,0,1-2.82-2.53c-13.69-13.68-27.33-27.41-41.09-41a14.9,14.9,0,0,1-4.8-11.33c.12-10,0-20.07,0-30.11Z"/><path d="M138.93,0A138.93,138.93,0,1,0,277.85,138.93,138.93,138.93,0,0,0,138.93,0Zm0,258.12A119.19,119.19,0,1,1,258.12,138.93,119.19,119.19,0,0,1,138.93,258.12Z"/></g></g></svg>