<svg xmlns="http://www.w3.org/2000/svg" viewBox="0 0 252.23 302.63"><g id="Capa_2" data-name="Capa 2"><g id="Capa_6" data-name="Capa 6"><path d="M100.84,211.66v-9.72c-4.46-.75-5.12-3.92-5-7.89.17-8.72,0-17.44,0-26.16,0-4.76,1.71-6.46,6.44-6.49,2.73,0,5.46,0,8.69,0v-11c0-2.63.1-5.26,0-7.88-.17-3.45,1.38-5.33,4.6-6.56,40.95-15.67,81.84-31.47,122.8-47.11,2.88-1.1,3.92-2.36,3.87-5.56-.22-14.17-.09-28.35-.09-42.75H232.05V58.44c0,11.33-5.93,17.22-17.34,17.22H17.36C5.94,75.66,0,69.78,0,58.46Q0,37.34,0,16.22C0,6.36,6.32,0,16.13,0H216c9.65,0,16,6.34,16,16,0,4.61,0,9.23,0,14.28,4.62,0,9.1,0,13.57,0,4.93,0,6.6,1.68,6.6,6.63q0,25.7,0,51.38c0,5.44-.52,6.21-5.53,8.14Q185.31,120,123.9,143.56c-2.29.88-3,1.93-2.88,4.28.19,4.38,0,8.78,0,13.56,3.23,0,6.24,0,9.25,0,3.94.06,5.85,1.88,5.87,5.77.05,9.56,0,19.12,0,28.68,0,3.4-1.67,5.26-4.93,6.06v9.75c4.41.7,5,3.91,5,7.86-.09,25.32,0,50.64-.05,76,0,5.6-1.51,7.13-7.06,7.13q-13.39,0-26.8,0c-4.75,0-6.48-1.72-6.48-6.43,0-26,0-51.91,0-77.86C95.8,214.75,97.11,212.48,100.84,211.66ZM37.63,65.57c13.32,0,25.89.07,38.46-.08a7.65,7.65,0,0,0,4.65-1.85,76.06,76.06,0,0,0,19.54-28.57,73.37,73.37,0,0,0,5.3-24.79H60.34C59.1,31.11,51.7,49.33,37.63,65.57Zm78.2-55.3c-1.22,20.82-8.66,39.1-22.69,55.3h28.58c14.48,0,14.51,0,23.35-11.59a77.72,77.72,0,0,0,16.07-43.71Zm32.79,55.3c13.72,0,26.62,0,39.53-.08a6,6,0,0,0,3.46-1.7,77,77,0,0,0,20.46-30.9,70.89,70.89,0,0,0,4.47-22.69H171.31C170.13,31,162.68,49.33,148.62,65.57ZM50.24,10.12c-12.06,0-23.69-.07-35.33,0-3,0-4.78,2.19-4.79,5.51,0,14.8-.07,29.6.06,44.4a6.82,6.82,0,0,0,1.73,4.16c1.9,2.07,10.63,2,12.73,0C40.28,49.76,48.69,31.81,50.24,10.12Zm75.76,212H106.11v70.26H126Zm-19.94-30.65H126V171.67h-19.9ZM221.94,33.06C216.54,48,209.71,57.2,202.5,65.56c3.47,0,10.17.07,14.05,0,3.24-.07,5.31-1.89,5.35-5C222,52.82,221.94,40,221.94,33.06Zm-101,168.85h-9.77v9.71h9.77Z"/></g></g></svg>