<svg xmlns="http://www.w3.org/2000/svg" xmlns:xlink="http://www.w3.org/1999/xlink" viewBox="0 0 310.84 92.1"><defs><style>.cls-1{fill:#fff;}.cls-2{fill:#a6a6a6;}.cls-3{fill:url(#Degradado_sin_nombre_3);}</style><linearGradient id="Degradado_sin_nombre_3" x1="-167.24" y1="352.16" x2="-167.24" y2="372.91" gradientTransform="matrix(16.02, 0, 0, -16.01, 2906.69, 5730.08)" gradientUnits="userSpaceOnUse"><stop offset="0" stop-color="#1a1a1a" stop-opacity="0.1"/><stop offset="0.12" stop-color="#212121" stop-opacity="0.15"/><stop offset="0.31" stop-color="#353535" stop-opacity="0.23"/><stop offset="0.53" stop-color="#575757" stop-opacity="0.32"/><stop offset="0.78" stop-color="#858585" stop-opacity="0.42"/><stop offset="1" stop-color="#b3b3b3" stop-opacity="0.51"/></linearGradient></defs><g id="Capa_2" data-name="Capa 2"><g id="Capa_13" data-name="Capa 13"><path class="cls-1" d="M308.78,81.23A8.82,8.82,0,0,1,300,90.05H10.89a8.84,8.84,0,0,1-8.84-8.82V10.88a8.84,8.84,0,0,1,8.84-8.83H299.94a8.83,8.83,0,0,1,8.84,8.83h0V81.23Z"/><path class="cls-2" d="M300,92.1H10.89A10.89,10.89,0,0,1,0,81.23V10.88A10.9,10.9,0,0,1,10.89,0H299.94a10.91,10.91,0,0,1,10.9,10.88V81.23A10.89,10.89,0,0,1,300,92.1Z"/><path d="M308.78,81.23A8.82,8.82,0,0,1,300,90.05H10.89a8.84,8.84,0,0,1-8.84-8.82V10.88a8.84,8.84,0,0,1,8.84-8.83H299.94a8.83,8.83,0,0,1,8.84,8.83h0V81.23Z"/><path class="cls-1" d="M69.41,45.57c-.07-7.43,6.08-11,6.36-11.21A13.7,13.7,0,0,0,65,28.54c-4.54-.48-8.93,2.71-11.24,2.71S47.85,28.59,44,28.67A14.31,14.31,0,0,0,32,36c-5.22,9-1.33,22.31,3.67,29.61,2.51,3.58,5.43,7.57,9.26,7.43s5.14-2.38,9.66-2.38,5.78,2.38,9.69,2.29,6.54-3.59,9-7.2a29.86,29.86,0,0,0,4.1-8.34,12.93,12.93,0,0,1-7.88-11.87ZM62,23.74a13.13,13.13,0,0,0,3-9.42,13.36,13.36,0,0,0-8.65,4.48c-1.86,2.17-3.52,5.72-3.09,9.07C56.57,28.11,59.94,26.21,62,23.74Z"/><path class="cls-3" d="M300,0H145.12l60.64,92.1H300a10.89,10.89,0,0,0,10.89-10.88V10.88A10.9,10.9,0,0,0,300,0Z"/><path class="cls-1" d="M123.63,72.56H118.4l-2.87-9h-10l-2.73,9H97.75l9.87-30.65h6.1Zm-9-12.78-2.59-8c-.28-.82-.79-2.75-1.55-5.78h-.09Q110,47.95,109,51.78l-2.54,8ZM149,61.24q0,5.64-3.06,8.91a9,9,0,0,1-6.82,2.91c-2.93,0-5-1-6.31-3.14v11.6h-4.91V57.72c0-2.36-.07-4.78-.19-7.26H132l.28,3.5h.09a8.74,8.74,0,0,1,14-.87A12.23,12.23,0,0,1,149,61.24Zm-5,.18a9.16,9.16,0,0,0-1.46-5.33,5.2,5.2,0,0,0-7.57-1A5.61,5.61,0,0,0,133,58.28a6.31,6.31,0,0,0-.22,1.49v3.69a5.92,5.92,0,0,0,1.47,4.07,4.91,4.91,0,0,0,3.85,1.66,5,5,0,0,0,4.32-2.13A9.44,9.44,0,0,0,144,61.42Zm30.43-.18q0,5.64-3.07,8.91a9,9,0,0,1-6.81,2.91c-2.93,0-5-1-6.32-3.14v11.6h-4.91V57.72q0-3.54-.18-7.26h4.32l.27,3.5h.09a8.74,8.74,0,0,1,14-.87,12.23,12.23,0,0,1,2.62,8.15Zm-5,.18a9.16,9.16,0,0,0-1.46-5.33,5,5,0,0,0-4.27-2.18,5.13,5.13,0,0,0-3.3,1.21,5.54,5.54,0,0,0-1.93,3.16,6.53,6.53,0,0,0-.23,1.49v3.69a5.92,5.92,0,0,0,1.47,4.07,4.91,4.91,0,0,0,3.85,1.66,5,5,0,0,0,4.32-2.13A9.44,9.44,0,0,0,169.39,61.42ZM202.82,64a8.2,8.2,0,0,1-2.72,6.37q-3,2.69-8.35,2.68a14.51,14.51,0,0,1-7.94-1.91L184.94,67a13.65,13.65,0,0,0,7.1,1.91,6.71,6.71,0,0,0,4.32-1.25,4.08,4.08,0,0,0,1.55-3.34,4.28,4.28,0,0,0-1.28-3.14,12,12,0,0,0-4.23-2.36q-8-3-8.05-8.78a7.76,7.76,0,0,1,2.84-6.18,11.26,11.26,0,0,1,7.53-2.42,14.86,14.86,0,0,1,7,1.46l-1.23,4a12.18,12.18,0,0,0-5.89-1.41,6,6,0,0,0-4.07,1.28,3.67,3.67,0,0,0-1.23,2.77,3.77,3.77,0,0,0,1.41,3,16.27,16.27,0,0,0,4.46,2.36A15,15,0,0,1,201,58.65,7.74,7.74,0,0,1,202.82,64Zm16.29-9.82h-5.42V64.87q0,4.09,2.87,4.09a8.87,8.87,0,0,0,2.18-.22l.13,3.72a10.86,10.86,0,0,1-3.81.55,5.86,5.86,0,0,1-4.55-1.78c-1.09-1.18-1.64-3.16-1.64-6V54.13h-3.23V50.45h3.23V46.4L213.69,45v5.5h5.42v3.69Zm24.37,7.19a12.11,12.11,0,0,1-2.91,8.36,10.37,10.37,0,0,1-8.09,3.37,9.91,9.91,0,0,1-7.76-3.23,11.72,11.72,0,0,1-2.89-8.14,12,12,0,0,1,3-8.41,10.33,10.33,0,0,1,8-3.27,10.11,10.11,0,0,1,7.82,3.23A11.56,11.56,0,0,1,243.48,61.33Zm-5.09.11a10,10,0,0,0-1.31-5.22,4.88,4.88,0,0,0-4.42-2.63,4.94,4.94,0,0,0-4.5,2.63,10.08,10.08,0,0,0-1.32,5.31,9.87,9.87,0,0,0,1.32,5.22,5,5,0,0,0,8.88,0,9.92,9.92,0,0,0,1.35-5.26Zm21.07-6.66a8.05,8.05,0,0,0-1.55-.14,4.64,4.64,0,0,0-4,2A7.41,7.41,0,0,0,252.68,61v11.6h-4.91V57.42q0-3.48-.15-7h4.28l.18,4.23h.14a7.53,7.53,0,0,1,2.45-3.5A5.92,5.92,0,0,1,258.22,50a7.54,7.54,0,0,1,1.23.09v4.69Zm22,5.68a11.85,11.85,0,0,1-.18,2.23H266.51a6.4,6.4,0,0,0,2.14,5,7.33,7.33,0,0,0,4.82,1.54,16.46,16.46,0,0,0,6-1l.77,3.4A18.29,18.29,0,0,1,272.79,73a10.76,10.76,0,0,1-8.08-3,11.2,11.2,0,0,1-2.93-8.12,12.68,12.68,0,0,1,2.73-8.32A9.42,9.42,0,0,1,272.24,50a8.23,8.23,0,0,1,7.23,3.54A11.91,11.91,0,0,1,281.42,60.46Zm-4.68-1.27a6.76,6.76,0,0,0-.95-3.78,4.31,4.31,0,0,0-3.92-2,4.67,4.67,0,0,0-3.91,2,7.37,7.37,0,0,0-1.45,3.81Z"/><path class="cls-1" d="M104.16,31.07a29.94,29.94,0,0,1-3.54-.18V16.07a27.64,27.64,0,0,1,4.16-.31c5.64,0,8.23,2.77,8.23,7.29C113,28.26,110,31.07,104.16,31.07ZM105,17.66a9.78,9.78,0,0,0-1.94.16V29.08a11.79,11.79,0,0,0,1.63.07c3.69,0,5.79-2.1,5.79-6C110.46,19.61,108.56,17.66,105,17.66Zm16.11,13.52c-3.17,0-5.23-2.37-5.23-5.58,0-3.36,2.1-5.75,5.41-5.75,3.13,0,5.24,2.26,5.24,5.57S124.34,31.18,121.09,31.18Zm.1-9.56c-1.75,0-2.87,1.63-2.87,3.91s1.14,3.87,2.84,3.87S124,27.65,124,25.48s-1.12-3.86-2.81-3.86Zm23.42-1.54-3.4,10.86H139l-1.41-4.72a34.59,34.59,0,0,1-.87-3.51h-.05a23.38,23.38,0,0,1-.87,3.51l-1.5,4.72h-2.24l-3.19-10.86h2.48l1.23,5.16c.29,1.23.53,2.39.73,3.49h.05c.18-.92.47-2.06.89-3.47l1.55-5.18h2l1.47,5.07c.36,1.23.65,2.44.88,3.58h.06a30.94,30.94,0,0,1,.74-3.58l1.32-5.07Zm12.51,10.86H154.7V24.7q0-2.88-2.19-2.88a2.5,2.5,0,0,0-2.41,2.66v6.46h-2.42V23.18c0-1,0-2-.09-3.11h2.13l.11,1.68h.07a3.91,3.91,0,0,1,3.44-1.9c2.28,0,3.78,1.75,3.78,4.58v6.51Zm6.66,0h-2.42V15.09h2.42Zm8.8.24c-3.17,0-5.23-2.37-5.23-5.58,0-3.36,2.1-5.75,5.41-5.75,3.13,0,5.23,2.26,5.23,5.57S175.82,31.18,172.58,31.18Zm.09-9.56c-1.75,0-2.86,1.63-2.86,3.91s1.14,3.87,2.83,3.87,2.84-1.75,2.84-3.92-1.11-3.86-2.81-3.86Zm14.84,9.32-.18-1.25h-.06a3.73,3.73,0,0,1-3.18,1.49A3.15,3.15,0,0,1,180.76,28c0-2.68,2.33-4.07,6.35-4.07v-.2c0-1.43-.76-2.15-2.25-2.15a5,5,0,0,0-2.84.81l-.49-1.59a7,7,0,0,1,3.73-.94c2.83,0,4.27,1.5,4.27,4.5v4a17.65,17.65,0,0,0,.15,2.59Zm-.34-5.41c-2.68,0-4,.65-4,2.19a1.54,1.54,0,0,0,1.65,1.7,2.31,2.31,0,0,0,2.37-2.21Zm14.08,5.41-.11-1.75h-.07a3.64,3.64,0,0,1-3.49,2c-2.62,0-4.56-2.3-4.56-5.54,0-3.4,2-5.79,4.76-5.79a3.26,3.26,0,0,1,3.07,1.48h0V15.09h2.42V28c0,1,0,2,.09,2.93Zm-.36-6.39a2.63,2.63,0,0,0-2.54-2.82c-1.79,0-2.88,1.59-2.88,3.82s1.13,3.69,2.83,3.69a2.71,2.71,0,0,0,2.59-2.88V24.55Zm17.74,6.63c-3.17,0-5.23-2.37-5.23-5.58,0-3.36,2.1-5.75,5.41-5.75,3.13,0,5.23,2.26,5.23,5.57s-2.16,5.76-5.41,5.76Zm.09-9.56c-1.74,0-2.86,1.63-2.86,3.91S217,29.4,218.7,29.4s2.84-1.75,2.84-3.92-1.11-3.86-2.82-3.86ZM237,30.94h-2.42V24.7c0-1.92-.74-2.88-2.19-2.88A2.5,2.5,0,0,0,230,24.48v6.46h-2.42V23.18c0-1,0-2-.09-3.11h2.13l.11,1.68h.07a3.88,3.88,0,0,1,3.44-1.9c2.28,0,3.78,1.74,3.78,4.58Zm16.24-9h-2.65v5.27c0,1.34.46,2,1.4,2a4.57,4.57,0,0,0,1.07-.11l.07,1.83a5.33,5.33,0,0,1-1.87.27c-1.91,0-3-1.05-3-3.8V21.89h-1.59V20.08h1.59v-2l2.37-.72v2.7h2.65v1.82Zm12.78,9.05h-2.41V24.75c0-1.95-.73-2.93-2.19-2.93A2.37,2.37,0,0,0,259,24.39v6.55h-2.41V15.09H259v6.53h.05a3.65,3.65,0,0,1,3.27-1.77c2.3,0,3.7,1.79,3.7,4.63v6.46Zm13.1-4.85H271.9a3.13,3.13,0,0,0,3.43,3.22,8,8,0,0,0,2.92-.52l.38,1.68a9,9,0,0,1-3.64.67c-3.4,0-5.41-2.15-5.41-5.48s2.06-5.83,5.13-5.83c2.78,0,4.52,2.06,4.52,5.16a4.5,4.5,0,0,1-.08,1.1Zm-2.22-1.72c0-1.68-.84-2.86-2.38-2.86a2.85,2.85,0,0,0-2.64,2.86Z"/></g></g></svg>