<svg xmlns="http://www.w3.org/2000/svg" viewBox="0 0 278.39 278.42"><defs><style>.cls-1{fill:#f1972c;}</style></defs><g id="Capa_2" data-name="Capa 2"><g id="Capa_25" data-name="Capa 25"><path class="cls-1" d="M136.64,0h5.25c5.39,0,14,4.7,18.19,8.29,11,9.36,22.28,18.49,33.35,27.82a8,8,0,0,0,5.61,2q21.32-.13,42.63,0c11.7,0,19.81,8.14,19.86,19.8,0,10.4-.15,17.2-.15,25.78,0,6.06,1.51,11.16,7.08,14.84l0,0a22,22,0,0,1,9.89,18.37V254.1c0,17.58-15.09,24.28-32.6,24.28H65.88c-12.23,0-24.46.14-36.69-.06A29.78,29.78,0,0,1,0,248.82Q-.06,182.88,0,117A21.92,21.92,0,0,1,8,100c2.42-2,3.6-2.39,5.65-4.77,2.73-3.16,3.19-5.54,3.19-11,0-10.6.07-15.12.08-25.72,0-12.56,8-20.47,20.57-20.48,14.31,0,28.62,0,42.93-.07a7.16,7.16,0,0,0,3.86-1.39c10-8.14,19.91-16.3,29.69-24.65C120.31,6.5,127.92,0,136.64,0Zm2.58,54.37H37.59c-3.74,0-4.41.67-4.41,4.43,0,19.74,0,39.49,0,59.24a4.71,4.71,0,0,0,1.93,4.1q47.29,39.15,94.52,78.4c6.29,5.21,12.89,5.25,19.18,0q47.26-39.2,94.54-78.38a4.77,4.77,0,0,0,1.95-4.1c-.06-19.48,0-38.95,0-58.43,0-5-.34-5.3-5.18-5.3Zm-106,207.57h212l-79.28-54.35c-2.38,2-4.6,3.81-6.84,5.64-12.46,10.15-27.51,10.08-40-.19l-6.59-5.44ZM16.33,127.37c0,.86,0,1.52,0,1.77q0,59.81,0,119.6c0,1.36,0,2.73,0,4.5C44,234.26,72,215.6,99.48,196.75,71.73,173.72,44.07,150.39,16.33,127.37Zm245.38.7-82.77,68.69,82.77,56.7Zm-91.5-90.14c-8-6.63-15.46-13-23.13-19-4.89-3.84-11.38-3.51-16.34.37-2.57,2-5,4.14-7.53,6.22L108.28,37.93Z"/><path class="cls-1" d="M139.2,114.18q29.36,0,58.71,0c5.5,0,9.24,3.7,8.9,8.68a8.11,8.11,0,0,1-7.27,7.56,19.66,19.66,0,0,1-2.17.06H81c-4.94,0-8.18-2.14-9.2-6-1.43-5.41,2.47-10.28,8.38-10.29q26.51,0,53,0Z"/><path class="cls-1" d="M118.07,97.87h-37c-5.78,0-9.5-3.17-9.55-8.09s3.7-8.22,9.4-8.22q37.38,0,74.75,0c5.55,0,9.23,3.23,9.28,8.08s-3.69,8.22-9.4,8.23Z"/></g></g></svg>