<svg xmlns="http://www.w3.org/2000/svg" viewBox="0 0 122.88 122.65"><defs><style>.cls-1{fill-rule:evenodd;}</style></defs><g id="Capa_2" data-name="Capa 2"><g id="Capa_17" data-name="Capa 17"><path class="cls-1" d="M109,47.08a13.75,13.75,0,0,1,13.89,13.8,14.08,14.08,0,0,1-13.95,14l-33.69.24L75,108.87a14,14,0,0,1-14,13.78,13.73,13.73,0,0,1-13.78-13.82l.23-33.5-33.56.24A13.75,13.75,0,0,1,0,61.76a14.08,14.08,0,0,1,13.94-14l33.7-.24.23-33.73A14,14,0,0,1,61.89,0,13.74,13.74,0,0,1,75.67,13.82l-.23,33.5L109,47.08Z"/></g></g></svg>