<svg xmlns="http://www.w3.org/2000/svg" viewBox="0 0 330.07 256.34"><defs><style>.cls-1{fill:#ff5a00;}.cls-2{fill:#eb001b;}.cls-3{fill:#f79e1b;}</style></defs><g id="Capa_2" data-name="Capa 2"><g id="Capa_9" data-name="Capa 9"><path d="M59.82,255.78v-17c0-6.5-4-10.77-10.77-10.77a11.15,11.15,0,0,0-9.64,4.83A10,10,0,0,0,30.32,228a9.11,9.11,0,0,0-7.92,4v-3.4H16.45v27.22H22.4v-15c0-4.83,2.54-7.11,6.5-7.11s6,2.55,6,7.11v15H40.8v-15c0-4.83,2.84-7.11,6.5-7.11,4,0,6,2.55,6,7.11v15ZM148,228.56h-9.64v-8.23h-5.95v8.23h-5.38v5.38h5.38v12.49c0,6.24,2.54,9.91,9.35,9.91a16,16,0,0,0,7.36-2l-1.71-5.12a9.54,9.54,0,0,1-5.12,1.42c-2.84,0-4-1.72-4-4.53V233.94H148v-5.38Zm50.48-.6a8.06,8.06,0,0,0-7.11,4v-3.41h-5.94v27.22h5.94V240.42c0-4.53,2-7.11,5.69-7.11a18.63,18.63,0,0,1,3.7.56l1.71-5.68a23.64,23.64,0,0,0-4-.23Zm-76.28,2.84c-2.84-2-6.8-2.84-11.06-2.84-6.81,0-11.33,3.4-11.33,8.79,0,4.52,3.4,7.1,9.34,7.93L112,245c3.1.57,4.82,1.42,4.82,2.84,0,2-2.28,3.41-6.24,3.41a15.68,15.68,0,0,1-9.09-2.84l-2.84,4.52a19.94,19.94,0,0,0,11.63,3.4c7.93,0,12.48-3.7,12.48-8.78,0-4.83-3.7-7.37-9.34-8.23l-2.84-.3c-2.55-.29-4.53-.85-4.53-2.54,0-2,2-3.1,5.12-3.1a20.45,20.45,0,0,1,8.52,2.28l2.51-4.83ZM280.42,228a8.06,8.06,0,0,0-7.1,4v-3.41h-5.95v27.22h5.95V240.42c0-4.53,2-7.11,5.68-7.11a18.63,18.63,0,0,1,3.7.56l1.72-5.61a18,18,0,0,0-4-.3Zm-76,14.21c0,8.22,5.68,14.17,14.47,14.17a14.24,14.24,0,0,0,9.65-3.11l-2.84-4.82a11.36,11.36,0,0,1-7.11,2.54c-4.82,0-8.22-3.4-8.22-8.78a8.34,8.34,0,0,1,8.22-8.79,11.66,11.66,0,0,1,7.11,2.54l2.84-4.82c-2.84-2.28-5.69-3.11-9.65-3.11-8.79,0-14.47,5.95-14.47,14.18Zm55,0V228.56H253.5V232a10.31,10.31,0,0,0-8.53-4c-7.66,0-13.61,5.95-13.61,14.18s5.95,14.17,13.61,14.17c4,0,6.81-1.42,8.53-4v3.41h5.94V242.17Zm-21.83,0c0-4.83,3.1-8.79,8.22-8.79,4.83,0,8.23,3.7,8.23,8.79,0,4.82-3.4,8.78-8.23,8.78a8.38,8.38,0,0,1-8.22-8.78ZM166.45,228c-7.92,0-13.61,5.68-13.61,14.17s5.69,14.17,13.91,14.17a17.26,17.26,0,0,0,11.07-3.7L175,248.34a13.49,13.49,0,0,1-7.93,2.84c-3.7,0-7.37-1.71-8.23-6.5h20.12V242.4c.26-8.76-4.86-14.44-12.49-14.44Zm0,5.12c3.7,0,6.25,2.28,6.81,6.51H159.09c.56-3.67,3.1-6.51,7.36-6.51Zm147.73,9.09V217.79h-5.95V232a10.28,10.28,0,0,0-8.52-4c-7.66,0-13.61,5.95-13.61,14.18s5.95,14.17,13.61,14.17c4,0,6.8-1.42,8.52-4v3.41h5.95V242.17Zm-21.84,0c0-4.83,3.11-8.79,8.23-8.79,4.82,0,8.22,3.7,8.22,8.79,0,4.82-3.4,8.78-8.22,8.78a8.36,8.36,0,0,1-8.23-8.78Zm-199,0V228.56h-6V232a10.28,10.28,0,0,0-8.52-4c-7.67,0-13.61,5.95-13.61,14.18s5.94,14.17,13.61,14.17c4,0,6.8-1.42,8.52-4v3.41h6V242.17Zm-22.1,0c0-4.83,3.1-8.79,8.22-8.79,4.82,0,8.23,3.7,8.23,8.79,0,4.82-3.41,8.78-8.23,8.78C74.29,250.66,71.19,247,71.19,242.17Z"/><rect id="rect19" class="cls-1" x="120.24" y="21.83" width="89.32" height="160.48"/><path class="cls-2" d="M126.19,102.07A102.37,102.37,0,0,1,165,21.83a102,102,0,1,0-63,182.31,101.51,101.51,0,0,0,63-21.83A101.86,101.86,0,0,1,126.19,102.07Z"/><path id="path22" class="cls-3" d="M330.07,102.07a102,102,0,0,1-165,80.24,102.29,102.29,0,0,0,0-160.48,102,102,0,0,1,165,80.24Z"/></g></g></svg>