<svg xmlns="http://www.w3.org/2000/svg" viewBox="0 0 379.14 98.78"><defs><style>.cls-1{fill:#253e8b;}.cls-2{fill:#00aeef;}.cls-3{fill:#fff;}</style></defs><g id="Capa_2" data-name="Capa 2"><g id="Capa_8" data-name="Capa 8"><path class="cls-1" d="M138.84,45.4c0-25-31.08-45.4-69.42-45.4S0,20.39,0,45.4c0,.65,0,2.44,0,2.66,0,26.54,27.16,48,69.41,48,42.52,0,69.43-21.48,69.43-48V45.4"/><path class="cls-2" d="M136.18,45.38c0,23.58-29.88,42.7-66.74,42.7S2.69,69,2.69,45.38,32.57,2.68,69.44,2.68s66.74,19.12,66.74,42.7"/><path class="cls-3" d="M47.27,31.91c0,.07-.7.76-.27,1.31,1.06,1.35,4.31,2.12,7.6,1.38,2-.44,4.47-2.44,6.9-4.37,2.64-2.09,5.25-4.19,7.88-5a9,9,0,0,1,5.75-.15,17.58,17.58,0,0,1,5.24,3.05c4.56,3.44,22.93,19.47,26.1,22.24a157.68,157.68,0,0,1,29.35-9.45c-1.34-8.22-6.35-15.76-13.94-21.92-10.58,4.45-23.51,6.77-36.15.59-.07,0-6.91-3.27-13.66-3.11C62,16.7,57.7,21,53.1,25.63l-5.83,6.28"/><path class="cls-3" d="M105.72,52.09c-.21-.19-21.59-18.9-26.43-22.54-2.81-2.1-4.36-2.64-6-2.84a7.84,7.84,0,0,0-2.85.27c-2.26.61-5.2,2.58-7.82,4.66S57.36,35.82,55,36.36a12.34,12.34,0,0,1-8.41-1.27,3.73,3.73,0,0,1-1.39-1.53,2.57,2.57,0,0,1,.71-2.79l5.9-6.38,2.08-2.05a39.43,39.43,0,0,0-5.37,1.21,23.16,23.16,0,0,1-6.28,1.18,59.86,59.86,0,0,1-6.4-1,95.08,95.08,0,0,1-17-6.15c-8.39,6.25-14,14.05-15.62,22.65,1.21.32,3.15.9,4,1.08,19,4.22,24.88,8.56,26,9.47a6.27,6.27,0,0,1,9.84.58,7.19,7.19,0,0,1,4.53-1.59,8.52,8.52,0,0,1,2.71.48A6.22,6.22,0,0,1,54,53.69a6.32,6.32,0,0,1,2.64-.56,8,8,0,0,1,3.16.69c3.5,1.5,4,4.94,3.73,7.53a6.28,6.28,0,0,1,.75,0,7.54,7.54,0,0,1,7.52,7.53,7.34,7.34,0,0,1-.9,3.55c1.13.64,4,2.07,6.54,1.75,2-.25,2.78-.94,3.06-1.33s.38-.58.2-.8l-5.36-6s-.88-.84-.59-1.16.85.15,1.23.47c2.73,2.27,6.06,5.71,6.06,5.71s.28.47,1.51.69a5.58,5.58,0,0,0,4.23-1,6.52,6.52,0,0,0,.93-1s0,0-.06,0a2.84,2.84,0,0,0-.15-3.52l-6.26-7s-.89-.83-.59-1.16.85.14,1.24.47c2,1.65,4.78,4.46,7.46,7.08.52.39,2.88,1.85,6-.2a4.32,4.32,0,0,0,2.22-3.92A4.48,4.48,0,0,0,97.27,59l-8.54-8.59s-.91-.77-.59-1.16.85.15,1.24.47c2.71,2.28,10.08,9,10.08,9a5.17,5.17,0,0,0,5.79-.12,3.86,3.86,0,0,0,1.91-3.06,4.51,4.51,0,0,0-1.44-3.48"/><path class="cls-3" d="M64.3,63c-1.32,0-2.77.77-3,.65s.08-.6.2-.91,1.87-5.55-2.38-7.37c-3.25-1.4-5.24.17-5.92.88-.18.19-.26.18-.28-.06a4.7,4.7,0,0,0-3.3-4.36,6.44,6.44,0,0,0-7.25,2.58,4.63,4.63,0,1,0-1.37,4,.23.23,0,0,1,0,.16,6.11,6.11,0,0,0,3.83,7,4.59,4.59,0,0,0,4.49-.69c.37-.26.43-.15.37.19-.15,1.08,0,3.39,3.28,4.69a4.16,4.16,0,0,0,4.87-.9c.41-.38.53-.32.55.27A5.86,5.86,0,1,0,64.3,63"/><path class="cls-1" d="M64.3,74.27a5.4,5.4,0,0,1-5.43-5.18c0-.25,0-.92-.59-.92a1,1,0,0,0-.66.35A3.83,3.83,0,0,1,55,69.73a4.56,4.56,0,0,1-1.75-.39c-3.11-1.25-3.15-3.38-3-4.23a.84.84,0,0,0-.11-.66l-.19-.16h-.2a1,1,0,0,0-.54.21,4.5,4.5,0,0,1-2.63.94A4.13,4.13,0,0,1,45,65.15a5.69,5.69,0,0,1-3.55-6.6.54.54,0,0,0-.18-.53L41,57.78l-.27.26A4.24,4.24,0,1,1,42,54.45l.14,1.14.63-1a6.17,6.17,0,0,1,4.93-2.7,6.38,6.38,0,0,1,1.84.28,4.31,4.31,0,0,1,3,4c0,.55.43.58.51.58a.68.68,0,0,0,.49-.26,4.28,4.28,0,0,1,3.12-1.31,6,6,0,0,1,2.33.52c4,1.72,2.18,6.78,2.16,6.84-.34.84-.36,1.21,0,1.42l.16.08h.11a2.71,2.71,0,0,0,.77-.21,7.12,7.12,0,0,1,2.13-.47h0a5.51,5.51,0,0,1,5.45,5.45A5.45,5.45,0,0,1,64.3,74.27Zm42.25-24.42c-6.59-5.74-21.8-19-25.92-22.07a18.26,18.26,0,0,0-5.38-3.13,8.89,8.89,0,0,0-2.64-.41,11.18,11.18,0,0,0-3.34.56c-2.67.85-5.32,3-7.89,5l-.13.1c-2.39,1.9-4.86,3.87-6.73,4.29a11.67,11.67,0,0,1-2.5.27c-2.09,0-4-.6-4.68-1.5-.12-.15,0-.39.23-.74l0,0,5.79-6.25c4.54-4.54,8.82-8.82,18.69-9h.49a34.87,34.87,0,0,1,13,3.07,40.19,40.19,0,0,0,17.67,4.24,46.19,46.19,0,0,0,19.41-4.65c-.75-.63-1.54-1.25-2.35-1.86a42.74,42.74,0,0,1-17,3.87,37.52,37.52,0,0,1-16.54-4,37.34,37.34,0,0,0-14.12-3.33H72c-8.29.19-13,3.13-16.1,5.71a31.76,31.76,0,0,0-8,1.47,22.33,22.33,0,0,1-5.66,1.08c-.73,0-2-.07-2.15-.07-2-.06-12.23-2.56-20.35-5.64-.83.59-1.62,1.19-2.4,1.81,8.48,3.48,18.8,6.16,22.06,6.37.9.07,1.87.17,2.83.17A23.79,23.79,0,0,0,48.63,24c1.23-.34,2.58-.72,4-1L51.5,24.1l-5.89,6.37a3,3,0,0,0-.81,3.25,4.18,4.18,0,0,0,1.56,1.72A12.23,12.23,0,0,0,52.6,37a11.6,11.6,0,0,0,2.49-.26c2.47-.56,5.06-2.62,7.8-4.8,2.18-1.74,5.29-3.94,7.66-4.59a8.88,8.88,0,0,1,2.14-.29,3.24,3.24,0,0,1,.55,0c1.57.19,3.09.73,5.8,2.76,4.83,3.63,26.21,22.33,26.42,22.52a4.09,4.09,0,0,1,1.28,3.14,3.42,3.42,0,0,1-1.7,2.73,5.22,5.22,0,0,1-2.81.87,4.71,4.71,0,0,1-2.48-.71c-.08-.07-7.4-6.78-10.1-9a2.25,2.25,0,0,0-1.27-.68.72.72,0,0,0-.56.27c-.42.52.06,1.24.62,1.72L97,59.31a4,4,0,0,1,1.18,2.32,3.91,3.91,0,0,1-2,3.55,5.55,5.55,0,0,1-3,1,4.42,4.42,0,0,1-2.44-.74l-1.23-1.21c-2.24-2.21-4.56-4.49-6.25-5.91a2.33,2.33,0,0,0-1.28-.66.74.74,0,0,0-.54.23c-.19.22-.33.6.16,1.24a3.74,3.74,0,0,0,.43.48l6.24,7a2.39,2.39,0,0,1,.14,3l-.22.28a5.05,5.05,0,0,1-.58.56,5,5,0,0,1-3.05,1,5.38,5.38,0,0,1-.84-.07,2.22,2.22,0,0,1-1.24-.52l-.07-.08c-.34-.35-3.49-3.57-6.09-5.74A2.13,2.13,0,0,0,75,64.37a.74.74,0,0,0-.57.25c-.52.56.26,1.41.58,1.72l5.33,5.87a1.11,1.11,0,0,1-.2.36c-.19.26-.84.91-2.77,1.15a5.52,5.52,0,0,1-.71,0,12.21,12.21,0,0,1-5.21-1.55,7.94,7.94,0,0,0-7.18-11.33H64c.14-2-.14-5.78-4-7.45a8.28,8.28,0,0,0-3.32-.73,6.79,6.79,0,0,0-2.43.43,6.75,6.75,0,0,0-3.89-3.3,8.87,8.87,0,0,0-2.85-.5,7.6,7.6,0,0,0-4.45,1.42,6.69,6.69,0,0,0-10-.56c-1.66-1.26-8.24-5.44-25.84-9.44-.85-.19-2.8-.75-4-1.1a27.61,27.61,0,0,0-.46,2.89l3.89.92c18,4,23.92,8.14,24.93,8.93A6.5,6.5,0,0,0,31.09,55a6.75,6.75,0,0,0,6.73,6.75,6.26,6.26,0,0,0,1.23-.12,7.87,7.87,0,0,0,5.09,5.87,6.65,6.65,0,0,0,2.4.47,6.11,6.11,0,0,0,1.53-.19,7.79,7.79,0,0,0,6.83,4.45A6,6,0,0,0,57,71.85a7.93,7.93,0,0,0,13,2.51,14.81,14.81,0,0,0,6.72,2,8.31,8.31,0,0,0,1-.07c2.72-.34,4-1.4,4.57-2.23a3.4,3.4,0,0,0,.28-.45,8.14,8.14,0,0,0,2.15.34,7.28,7.28,0,0,0,4.35-1.56,6,6,0,0,0,2.56-3.73v0a8,8,0,0,0,1.46.15,8.1,8.1,0,0,0,4.46-1.42,6.46,6.46,0,0,0,3.21-5.74,7.19,7.19,0,0,0,1.47.15,7.74,7.74,0,0,0,4.18-1.28,6.13,6.13,0,0,0,2.91-4.74,6.3,6.3,0,0,0-.93-3.82,172.42,172.42,0,0,1,27.74-8.68c-.08-1-.22-1.93-.39-2.88a158.68,158.68,0,0,0-29.21,9.49"/><path class="cls-1" d="M369.17,34.48a6.87,6.87,0,0,1-10.47,0c-1.23-1.61-1.84-3.91-1.84-6.88s.61-5.26,1.84-6.87a6.91,6.91,0,0,1,10.47,0A11.26,11.26,0,0,1,371,27.6,11.29,11.29,0,0,1,369.17,34.48Zm6.21-18q-3.76-4.69-11.42-4.7c-5.09,0-8.9,1.57-11.4,4.7A17.28,17.28,0,0,0,348.8,27.6a17.19,17.19,0,0,0,3.76,11.18c2.5,3.08,6.31,4.63,11.4,4.63s8.91-1.55,11.42-4.63a17.19,17.19,0,0,0,3.76-11.18,17.28,17.28,0,0,0-3.76-11.13"/><path class="cls-1" d="M307.39,30.82c-.05,2.6-.79,4.4-2.23,5.38a8.16,8.16,0,0,1-4.7,1.48,4.28,4.28,0,0,1-2.73-.89,3.46,3.46,0,0,1-1.12-2.89,3.54,3.54,0,0,1,1.84-3.3A11.32,11.32,0,0,1,302,29.54l1.77-.33a13.69,13.69,0,0,0,2.09-.54,8.08,8.08,0,0,0,1.5-.75Zm3.95-17a19,19,0,0,0-8.72-1.94q-7.55,0-10.65,3.93a11.53,11.53,0,0,0-2.2,6.43h7.52a5.6,5.6,0,0,1,1.11-2.73c.78-.91,2.09-1.37,4-1.37a8,8,0,0,1,3.78.7,2.6,2.6,0,0,1,1.29,2.52,2.36,2.36,0,0,1-1.68,2.22,12.45,12.45,0,0,1-3.12.68l-2.66.33a19,19,0,0,0-6.88,1.91q-4.27,2.46-4.27,7.95A8.2,8.2,0,0,0,291.47,41a10.57,10.57,0,0,0,6.73,2.32c17,.75,16.8-9,17-11V21.17c0-3.58-1.28-6-3.82-7.32"/><path class="cls-1" d="M272.59,18.57a5.06,5.06,0,0,1,4.29,1.8,6.67,6.67,0,0,1,1.18,3h8.39q-.7-6.35-4.45-8.86a17.1,17.1,0,0,0-9.64-2.5q-6.93,0-10.86,4.25t-3.94,11.89q0,6.76,3.56,11t11.12,4.24q7.58,0,11.42-5.09a12.75,12.75,0,0,0,2.7-6.7H278a7,7,0,0,1-1.47,3.81q-1.2,1.47-4.08,1.47a5.46,5.46,0,0,1-5.53-3.7,14.09,14.09,0,0,1-.81-5.24,15.37,15.37,0,0,1,.81-5.49,5.64,5.64,0,0,1,5.67-3.9"/><path class="cls-1" d="M255.31,12c-17.22,0-16.2,15.25-16.2,15.25V42.75h7.81V28.22a11.87,11.87,0,0,1,.9-5.29q1.6-3,6.29-3.05l.93,0c.38,0,.81.05,1.31.11V12.07c-.35,0-.57,0-.67-.05h-.37"/><path class="cls-1" d="M216.1,20.1a6.16,6.16,0,0,1,4.63-1.69,6.79,6.79,0,0,1,4.61,1.6,6.48,6.48,0,0,1,2.06,4.69H214A8,8,0,0,1,216.1,20.1Zm10.5,14.55a5.91,5.91,0,0,1-1.07,1.19A6.65,6.65,0,0,1,221.16,37,7.39,7.39,0,0,1,217,36c-1.95-1.2-3-3.22-3.16-6.2h21.62a37.4,37.4,0,0,0-.26-5.89,14.63,14.63,0,0,0-2.36-6.14,12.12,12.12,0,0,0-5.13-4.4,17,17,0,0,0-7-1.38,14.32,14.32,0,0,0-10.62,4.11Q206,20.25,206,28q0,8.23,4.53,11.89A16.22,16.22,0,0,0,221,43.49q7.19,0,11.17-4.33a10.53,10.53,0,0,0,2.71-4.51H226.6"/><path class="cls-1" d="M202.88,42.74h-7.14v-18c0-1.64-.54-5.55-5.25-5.55a5.26,5.26,0,0,0-5.41,5.55v18h-7.14v-18c0-1.64-.49-5.55-5.2-5.55a5.23,5.23,0,0,0-5.41,5.55v18h-7.14V24.94c0-7.42,4.92-13,12.55-13a11,11,0,0,1,8.88,4.15,11.37,11.37,0,0,1,8.87-4.15c7.8,0,12.39,5.39,12.39,13v17.8"/><path class="cls-1" d="M337.1,34.55a5.74,5.74,0,0,1-5,2.45,5.49,5.49,0,0,1-4.92-2.46,12.59,12.59,0,0,1-1.62-6.79,11.91,11.91,0,0,1,1.59-6.38,5.45,5.45,0,0,1,5-2.58,5.92,5.92,0,0,1,3.93,1.42c1.83,1.56,2.75,4.36,2.75,8A10.88,10.88,0,0,1,337.1,34.55Zm9.37-31.93s-7.87-.84-7.87,5.49v8.37a9.29,9.29,0,0,0-3.4-3.28,9.55,9.55,0,0,0-4.8-1.19A11.38,11.38,0,0,0,321,16.37c-2.33,2.9-3.49,7.09-3.49,12.16a16.17,16.17,0,0,0,3.55,10.8c2.37,2.8,7,4,11.14,4,14.39,0,14.22-12.34,14.22-12.34V2.62"/><path class="cls-2" d="M230.35,71.2c0-3-.57-5.21-1.73-6.8A5.73,5.73,0,0,0,223.68,62a5.63,5.63,0,0,0-4.82,2.38q-1.61,2.16-1.61,6.8c0,2.88.57,5,1.73,6.46a5.71,5.71,0,0,0,4.93,2.39,5.48,5.48,0,0,0,4.71-2.39,10.7,10.7,0,0,0,1.73-6.46m-13.1,21.15a3.69,3.69,0,0,1-1.15,2.72,3.79,3.79,0,0,1-2.76,1.13h-3.9V69c0-5.28,1.78-8.58,4.71-10.82,1.94-1.48,4.82-2.89,10.22-2.89,3.65,0,7.93,1.42,10.24,4.23,2.59,3.17,3.66,6.69,3.66,11.3,0,4.77-1.15,8.61-3.44,11.57a10.82,10.82,0,0,1-8.85,4.3,11.8,11.8,0,0,1-5-1,8.51,8.51,0,0,1-3.68-3.51V92.35"/><path class="cls-2" d="M277.19,71.2q0,7.81,4.52,8.67t6.65-2.1a8.36,8.36,0,0,0,1.47-3.9,16.65,16.65,0,0,0,.06-5.27A10.49,10.49,0,0,0,288,64a5,5,0,0,0-4.28-2c-2.56,0-4.29,1-5.19,2.83a14.73,14.73,0,0,0-1.36,6.46m12.87,13V82.31a8.63,8.63,0,0,1-5.48,4,11.12,11.12,0,0,1-6.82-.57,12.56,12.56,0,0,1-5.81-5c-1.62-2.46-2.43-5.68-2.43-9.69q0-7,3.21-11.38c2.15-2.9,5.59-4.23,10.33-4.36s7.39.93,10.05,3c2.9,2.2,4.62,5.59,4.62,10.87V85c0,5.08-3.53,14.5-14.67,13.7-6.9-.5-10.72-3.33-12.86-9.74h8.24a6.27,6.27,0,0,0,6.48,2.88,6.14,6.14,0,0,0,3.39-2.2,9.28,9.28,0,0,0,1.75-5.44"/><path class="cls-2" d="M258.89,74.36c-.05,2.6-.8,4.39-2.23,5.38a8.15,8.15,0,0,1-4.7,1.47,4.24,4.24,0,0,1-2.73-.89,3.45,3.45,0,0,1-1.13-2.88,3.54,3.54,0,0,1,1.84-3.3,11.63,11.63,0,0,1,3.58-1.07l1.77-.32a13.38,13.38,0,0,0,2.09-.54,8.48,8.48,0,0,0,1.51-.75Zm3.95-17a19,19,0,0,0-8.72-1.94c-5,0-8.58,1.31-10.66,3.93a11.52,11.52,0,0,0-2.19,6.42h7.52a5.59,5.59,0,0,1,1.1-2.73c.78-.91,2.1-1.36,4-1.36a8,8,0,0,1,3.78.69,2.63,2.63,0,0,1,1.29,2.53,2.34,2.34,0,0,1-1.68,2.21,12.25,12.25,0,0,1-3.11.69l-2.67.32a19.15,19.15,0,0,0-6.87,1.92q-4.28,2.46-4.27,8A8.2,8.2,0,0,0,243,84.56a10.54,10.54,0,0,0,6.72,2.31c17,.76,16.8-9,17-11V64.71q0-5.38-3.81-7.32"/><path class="cls-2" d="M321.08,77.85a6.87,6.87,0,0,1-10.47,0q-1.85-2.41-1.84-6.87t1.84-6.87a6.91,6.91,0,0,1,10.47,0q1.83,2.4,1.83,6.87t-1.83,6.87m6.21-18q-3.75-4.71-11.42-4.71c-5.09,0-8.9,1.57-11.4,4.71A17.24,17.24,0,0,0,300.71,71a17.18,17.18,0,0,0,3.76,11.17c2.5,3.08,6.31,4.64,11.4,4.64s8.92-1.56,11.42-4.64A17.17,17.17,0,0,0,331,71a17.24,17.24,0,0,0-3.75-11.13"/></g></g></svg>