<svg xmlns="http://www.w3.org/2000/svg" viewBox="0 0 296.02 296.06"><defs><style>.cls-1{fill:#f1972c;}</style></defs><g id="Capa_2" data-name="Capa 2"><g id="Capa_22" data-name="Capa 22"><path class="cls-1" d="M261.52,155c0,1.79-.55,2.7-2.5,2.7h-4.69c-1.82,0-2.59-.84-2.59-2.8V88.84h-59.2V29.76H138.21v3.35q0,59.42,0,118.82c0,8-4.44,13.86-11.67,15.45a22.69,22.69,0,0,1-4.88.34q-36.74,0-73.46,0H44.63V283.87A2.16,2.16,0,0,0,46.79,286H248a3.58,3.58,0,0,0,3.58-3.58V230.82a3.58,3.58,0,0,1,3.58-3.58h2.48a3.73,3.73,0,0,1,3.73,3.72l0,61.38a3.72,3.72,0,0,1-3.72,3.72H38.32a3.72,3.72,0,0,1-3.72-3.71V167.72c-7,0-13.58.1-20.12,0-5.79-.11-10-2.93-12.81-8h0A13.55,13.55,0,0,1,0,153.18V15.61A16.35,16.35,0,0,1,2.83,6.17,14.16,14.16,0,0,1,12.29.27,18,18,0,0,1,15.56,0q52.9,0,105.8,0c11,0,16.8,5.8,16.85,16.7v3h3.48c18.42,0,36.85,0,55.27.07a6.88,6.88,0,0,1,4.18,1.74q29.45,29.23,58.69,58.67a5.56,5.56,0,0,1,1.63,3.4M9.85,83.75V150.8c0,5.61,1.44,7.08,6.93,7.08H121.43c5.39,0,6.92-1.51,6.92-6.82q0-67.18,0-134.39c0-5.28-1.57-6.82-6.94-6.82H16.76c-5.36,0-6.9,1.54-6.9,6.85Q9.84,50.22,9.85,83.75Zm233.44-5L202.55,38.12V78.77Z"/><path class="cls-1" d="M296,167.64a16.67,16.67,0,0,1-5.4,11.81q-31.12,31-62.16,62.1c-6.61,6.61-13.17,13.26-19.86,19.79a19.51,19.51,0,0,1-5.15,3.56c-7.37,3.53-14.84,6.86-22.25,10.33-2.42,1.14-4.77,1.79-6.92-.35s-1.65-4.49-.46-6.92a75.3,75.3,0,0,0,3.6-7.87c4.41-12.32,12.17-22.06,21.55-31.15,23.93-23.19,47.28-47,70.83-70.58,4.39-4.39,9.48-6.13,15.53-4.5A14.44,14.44,0,0,1,296,167.64Zm-108,93.5c6.82-3.08,13-5.74,18-10.93,18.29-18.77,37-37.15,55.49-55.67.73-.73,1.42-1.49,1.67-1.76l-6.39-7.24c-1.26,1.16-1.74,1.52-2.49,2.26-18.17,18.2-36.21,36.54-54.65,54.46C194.19,247.57,191,253.81,188,261.14Zm93.32-86.55c5.2-4.68,6.09-7.54,3.26-10.21s-6.09-1.52-10,3.42Zm-7.58,7.75-6.72-6.8-2.76,2.27,6.78,6.88Z"/><path class="cls-1" d="M162.89,227.29a49.45,49.45,0,0,1-50.12,49c-27.35-.4-48.91-22.83-48.57-50.53.32-26.72,23.07-48.62,50.05-48.2S163.21,200.48,162.89,227.29ZM153,227a39.49,39.49,0,1,0-39.61,39.48A39.59,39.59,0,0,0,153,227Z"/><path class="cls-1" d="M177.72,152.75V143.3h59v9.45Z"/><path class="cls-1" d="M236.76,123.57V133H177.84v-9.46Z"/><path class="cls-1" d="M177.78,113.26v-9.5H236.7v9.5Z"/><path class="cls-1" d="M177.89,163.06h58.89v9.49H177.89Z"/><path class="cls-1" d="M158.13,143.27h9.49v9.46h-9.49Z"/><path class="cls-1" d="M167.58,133h-9.52v-9.49h9.52Z"/><path class="cls-1" d="M167.59,113.29h-9.45v-9.51h9.45Z"/><path class="cls-1" d="M167.64,163.11v9.46h-9.57v-9.46Z"/><path class="cls-1" d="M15,49.1v-34h108.1V49.1Zm9.89-9.86h88.33V24.91H24.88Z"/><path class="cls-1" d="M83.88,138.26c0,1.44,0,2.89,0,4.33-.09,6.13-3.89,10.11-10,10.36-3.17.12-6.36.13-9.53,0-6.14-.25-9.91-4.23-10-10.41,0-3,0-6,0-8.95.08-5.94,3.94-10,9.88-10.23,3.27-.14,6.56-.15,9.83,0,5.92.27,9.74,4.33,9.84,10.29C83.9,135.18,83.88,136.72,83.88,138.26Zm-19.54-4.93v9.56h9.48v-9.56Z"/><path class="cls-1" d="M88.88,138.08c0-1.54,0-3.08,0-4.62.18-5.86,3.9-9.81,9.71-10.1a100.27,100.27,0,0,1,10.11,0c5.76.29,9.6,4.31,9.76,10.11.09,3.17.1,6.35,0,9.53a9.76,9.76,0,0,1-9.62,9.91c-3.17.18-6.36.13-9.54.05-6.54-.16-10.31-4-10.43-10.55C88.86,141,88.88,139.52,88.88,138.08Zm19.57,4.83v-9.49H98.93v9.49Z"/><path class="cls-1" d="M49.25,138.1c0,1.92.1,3.85,0,5.77a9.12,9.12,0,0,1-8.08,8.81,76.15,76.15,0,0,1-13.25,0c-4.57-.4-7.91-4.36-8.13-9.11-.17-3.55-.17-7.13,0-10.69.24-5.38,4.19-9.24,9.73-9.51,3.37-.16,6.75-.17,10.11,0,5.8.29,9.54,4.28,9.69,10.11.05,1.54,0,3.08,0,4.63Zm-10,4.82v-9.47H29.77v9.47Z"/><path class="cls-1" d="M54.34,69.19c0-1.84-.06-3.67,0-5.5a9.62,9.62,0,0,1,9.22-9.33c3.66-.14,7.33-.13,11,0a9.58,9.58,0,0,1,9.29,9.27c.14,3.66.15,7.33,0,11a9.66,9.66,0,0,1-9.37,9.22c-3.36.12-6.74.08-10.11,0-5.88-.09-9.91-4.15-10-10,0-1.54,0-3.08,0-4.62ZM74,64.35H64.39v9.43H74Z"/><path class="cls-1" d="M40.25,54.32c6.73,0,9,4.48,9,8.84,0,3.68.05,8.94,0,10.67-.17,6-4.13,9.93-10,10q-4.77.09-9.54,0a9.79,9.79,0,0,1-10-9.56c-.14-3.46-.14-6.94,0-10.4a9.77,9.77,0,0,1,9.94-9.57C31.42,54.28,38.52,54.32,40.25,54.32Zm-1,19.57V64.35h-9.5v9.54Z"/><path class="cls-1" d="M89,69.05c0-1.92-.12-3.86,0-5.77a9.48,9.48,0,0,1,9-8.91c3.75-.16,7.52-.15,11.27,0,5.11.2,9,4.31,9.22,9.68.13,3.37.14,6.75,0,10.11-.25,5.71-4.38,9.6-10.14,9.7q-4.62.06-9.24,0c-6-.09-9.95-4-10.17-9.9-.06-1.63,0-3.27,0-4.91Zm19.52,4.85V64.34H99V73.9Z"/><path class="cls-1" d="M69.12,88.89c1.74,0,3.48-.08,5.2,0a9.66,9.66,0,0,1,9.55,9.91q.09,4.77,0,9.54a9.81,9.81,0,0,1-9.75,10.08c-3.36.14-6.74.14-10.11,0-5.7-.25-9.59-4.38-9.68-10.14q-.06-4.62,0-9.24c.08-6,3.92-10,9.88-10.17,1.64-.06,3.28,0,4.91,0Zm-4.77,19.52h9.48V99H64.35Z"/><path class="cls-1" d="M49.29,103.7c0,1.64.05,3.28,0,4.91a9.75,9.75,0,0,1-9.69,9.82c-3.36.14-6.74.14-10.11,0a9.84,9.84,0,0,1-9.74-9.82c-.11-3.37-.12-6.75,0-10.11a9.64,9.64,0,0,1,9.59-9.59c3.27-.13,6.55-.1,9.82,0,6.19.14,10,4,10.14,10.2,0,1.54,0,3.08,0,4.62Zm-10,4.74V99H29.74v9.48Z"/><path class="cls-1" d="M89,103.45c0-1.92-.13-3.86,0-5.77A9.3,9.3,0,0,1,97.54,89a102.27,102.27,0,0,1,12.13,0c4.9.29,8.54,4.3,8.78,9.46.15,3.36.14,6.74,0,10.11a9.89,9.89,0,0,1-10,9.87c-3.08.1-6.17.08-9.25,0C93,118.33,89,114.37,88.89,108.07c0-1.54,0-3.08,0-4.62Zm19.51-4.54H99v9.51h9.47Z"/><path class="cls-1" d="M108.67,251.35s-12.47-2.69-14.74-13a1.19,1.19,0,0,1,1.16-1.43c2.58,0,5,0,7.44,0a2.34,2.34,0,0,1,1.39.81c4.36,5.53,14.42,5.89,17.93,2.48a4.48,4.48,0,0,0-.83-7.19c-2.45-1.14-5.39-.86-8.1-1.09-4.75-.39-9.24-1.35-13.19-4.21a13.21,13.21,0,0,1-3-18.2,16,16,0,0,1,11.91-7.25h0a4.8,4.8,0,0,1,4.8-4.8h0c2.73,0,5,1.52,5.1,4.25v.55c6.47.5,13.11,4.59,13.11,12.28,0,1.28-.59,2.47-1.87,2.47-2,0-2.58,0-4.73,0a1.89,1.89,0,0,1-1.94-1.87c0-4-6-5.62-11.11-5.18-3.91.33-7.38,2.59-7.38,6.4,0,5.08,6.1,5.45,9.33,5.61,5.07.26,10,1.18,13,3.26,9,6.18,6.28,18.69-.37,22.92a20.42,20.42,0,0,1-8.05,3.41h0c0,3.66-2,4.88-5.1,4.88-2.54,0-4.84-2.09-4.84-4C108.68,251.45,108.67,251.35,108.67,251.35Z"/></g></g></svg>