<svg xmlns="http://www.w3.org/2000/svg" viewBox="0 0 334.96 108.4"><defs><style>.cls-1{fill:#00579f;}.cls-2{fill:#faa61a;}</style></defs><g id="Capa_2" data-name="Capa 2"><g id="Capa_10" data-name="Capa 10"><g id="g4158"><polygon id="polygon9" class="cls-1" points="145.15 106.84 118.01 106.84 134.99 1.9 162.12 1.9 145.15 106.84"/><path id="path11" class="cls-1" d="M243.51,4.47A66.71,66.71,0,0,0,219.17,0c-26.79,0-45.66,14.29-45.78,34.72-.22,15.07,13.51,23.44,23.78,28.47,10.5,5.13,14.07,8.48,14.07,13.06-.11,7-8.48,10.27-16.3,10.27-10.83,0-16.63-1.67-25.45-5.58l-3.58-1.68-3.79,23.56c6.36,2.9,18.08,5.47,30.26,5.58,28.47,0,47-14.06,47.22-35.83.11-11.95-7.14-21.1-22.77-28.58-9.49-4.8-15.31-8-15.31-13,.12-4.47,4.92-9,15.63-9a46.1,46.1,0,0,1,20.22,4l2.45,1.12,3.69-22.66Z"/><path id="path13" class="cls-1" d="M279.57,69.66c2.24-6,10.84-29.36,10.84-29.36-.12.23,2.23-6.14,3.57-10l1.89,9s5.14,25.12,6.26,30.36ZM313.07,1.9h-21c-6.47,0-11.39,1.9-14.18,8.71l-40.31,96.23h28.47l5.7-15.74H306.6c.77,3.68,3.23,15.74,3.23,15.74H335L313.07,1.9Z"/><path id="path15" class="cls-1" d="M95.35,1.9,68.78,73.46,65.87,59C61,42.2,45.55,24,28.36,15L52.7,106.73H81.39L124,1.9Z"/><path id="path17" class="cls-2" d="M44.1,1.9H.45L0,4C34.05,12.73,56.61,33.72,65.87,59L56.38,10.72C54.82,4,50,2.12,44.1,1.9Z"/></g></g></g></svg>